<svg xmlns="http://www.w3.org/2000/svg" width="15.794" height="18.75" fill='black' viewBox="0 0 15.794 18.75">
  <path id="apple-black-9b56ee2f42e5df5622ccc847c09c24c2" d="M18.463,15.612a10.191,10.191,0,0,1-1.008,1.812,9.208,9.208,0,0,1-1.3,1.569,2.519,2.519,0,0,1-1.669.735,4.182,4.182,0,0,1-1.542-.368,4.424,4.424,0,0,0-1.66-.367,4.574,4.574,0,0,0-1.707.367,4.59,4.59,0,0,1-1.475.388A2.371,2.371,0,0,1,6.4,18.994a9.67,9.67,0,0,1-1.358-1.625A11.238,11.238,0,0,1,3.6,14.516a10.447,10.447,0,0,1-.6-3.4,6.209,6.209,0,0,1,.815-3.249A4.783,4.783,0,0,1,5.523,6.14a4.594,4.594,0,0,1,2.309-.651A5.436,5.436,0,0,1,9.618,5.9a5.74,5.74,0,0,0,1.416.417A8.476,8.476,0,0,0,12.6,5.83a5.191,5.191,0,0,1,2.135-.379A4.533,4.533,0,0,1,18.29,7.32,3.95,3.95,0,0,0,16.2,10.909a3.958,3.958,0,0,0,1.3,2.982,4.271,4.271,0,0,0,1.3.852Q18.637,15.2,18.463,15.612ZM14.845,1.375A4,4,0,0,1,13.819,4a3.493,3.493,0,0,1-2.9,1.432,2.908,2.908,0,0,1-.022-.355,4.11,4.11,0,0,1,1.088-2.651,4.189,4.189,0,0,1,1.325-.995A3.95,3.95,0,0,1,14.825,1,3.405,3.405,0,0,1,14.845,1.375Z" transform="translate(-3 -1)"/>
</svg>
