<svg id="brake_2_" data-name="brake (2)" xmlns="http://www.w3.org/2000/svg" width="21.301" height="21.301" viewBox="0 0 21.301 21.301">
  <path id="Path_46389" data-name="Path 46389" d="M131.126,186.2a4.323,4.323,0,0,0-.819-1.98l-.839.839-.882-.882.839-.839a4.324,4.324,0,0,0-1.98-.819V183.7H126.2v-1.185a4.324,4.324,0,0,0-1.98.819l.839.839-.882.882-.839-.839a4.324,4.324,0,0,0-.819,1.98H123.7v1.248h-1.185a4.324,4.324,0,0,0,.819,1.98l.839-.839.882.882-.839.839a4.324,4.324,0,0,0,1.98.819v-1.185h1.248v1.185a4.324,4.324,0,0,0,1.98-.819l-.839-.839.882-.882.839.839a4.323,4.323,0,0,0,.819-1.98h-1.185V186.2Zm-4.305,2.5a1.872,1.872,0,1,1,1.872-1.872A1.874,1.874,0,0,1,126.821,188.693Zm0,0" transform="translate(-117.418 -174.922)" fill="#2e3036"/>
  <path id="Path_46390" data-name="Path 46390" d="M277.014,10.027h4.013A10.743,10.743,0,0,0,271,0V4.013a8.111,8.111,0,0,1,6.014,6.014Zm0,0" transform="translate(-259.725)" fill="#2e3036"/>
  <path id="Path_46391" data-name="Path 46391" d="M211.624,271a.624.624,0,1,0,.624.624A.624.624,0,0,0,211.624,271Zm0,0" transform="translate(-202.222 -259.725)" fill="#2e3036"/>
  <path id="Path_46392" data-name="Path 46392" d="M16.251,69.737l-.088-.521A6.858,6.858,0,0,0,10.547,63.6l-.521-.088V61.044C9.818,61.031,9.61,61,9.4,61a9.382,9.382,0,1,0,9.361,9.361c0-.208-.03-.416-.044-.624ZM9.4,75.978a5.617,5.617,0,1,1,5.617-5.617A5.623,5.623,0,0,1,9.4,75.978Zm0,0" transform="translate(0 -58.463)" fill="#fea409"/>
</svg>
