<svg id="Camera_Photo" data-name="Camera,Photo" xmlns="http://www.w3.org/2000/svg" width="21.922" height="21.922" viewBox="0 0 21.922 21.922">
  <g id="Group_70066" data-name="Group 70066" transform="translate(2.74 3.654)">
    <path id="Path_74978" data-name="Path 74978" d="M14.29,10.067a3.642,3.642,0,1,1-5.15,0,3.642,3.642,0,0,1,5.15,0" transform="translate(-3.439 -4.433)" fill="none" stroke="#3b3b3b" stroke-linecap="round" stroke-linejoin="round" stroke-width="1.5"/>
    <path id="Path_74979" data-name="Path 74979" d="M19.441,8.567v8.221a1.826,1.826,0,0,1-1.827,1.827H4.827A1.826,1.826,0,0,1,3,16.788V8.567A1.826,1.826,0,0,1,4.827,6.74H6.654L7.989,4.453A.913.913,0,0,1,8.778,4h4.845a.914.914,0,0,1,.783.442l1.382,2.3h1.827a1.826,1.826,0,0,1,1.827,1.827Z" transform="translate(-3 -4)" fill="none" stroke="#3b3b3b" stroke-linecap="round" stroke-linejoin="round" stroke-width="1.5"/>
  </g>
  <path id="Path_74980" data-name="Path 74980" d="M0,0H21.922V21.922H0Z" fill="none"/>
</svg>
