<svg id="Car.2" xmlns="http://www.w3.org/2000/svg" width="25" height="25" viewBox="0 0 25 25">
  <path id="Path_74912" data-name="Path 74912" d="M0,0H25V25H0Z" fill="none"/>
  <path id="Path_74913" data-name="Path 74913" d="M7.073,22.188,2.617,17.731a2.1,2.1,0,0,1,0-2.975L13.76,3.613a3.155,3.155,0,0,1,4.462,0l2.969,2.969a3.155,3.155,0,0,1,0,4.462L10.048,22.188A2.1,2.1,0,0,1,7.073,22.188Z" transform="translate(0.083 0.112)" fill="#fea409" stroke="#fea409" stroke-linecap="round" stroke-linejoin="round" stroke-width="1.5"/>
  <path id="Path_74914" data-name="Path 74914" d="M16.443,15.3l.42-2.028A3.152,3.152,0,0,0,16,10.408l-2.1-2.1a3.155,3.155,0,0,0-2.869-.858l-2.027.421" transform="translate(0.375 0.308)" fill="none" stroke="#fff" stroke-linecap="round" stroke-linejoin="round" stroke-width="1.5"/>
  <path id="Path_74915" data-name="Path 74915" d="M9.069,7.909,7.59,6.43" transform="translate(0.316 0.268)" fill="none" stroke="#fff" stroke-linecap="round" stroke-linejoin="round" stroke-width="1.5"/>
  <path id="Path_74916" data-name="Path 74916" d="M4.73,12.14l7.427,7.427" transform="translate(0.197 0.506)" fill="none" stroke="#2e3036" stroke-linecap="round" stroke-linejoin="round" stroke-width="1.5"/>
  <path id="Path_74917" data-name="Path 74917" d="M9.73,2v.9" transform="translate(0.405 0.083)" fill="none" stroke="#2e3036" stroke-linecap="round" stroke-linejoin="round" stroke-width="2"/>
  <path id="Path_74918" data-name="Path 74918" d="M3.16,8.57h.9" transform="translate(0.132 0.357)" fill="none" stroke="#2e3036" stroke-linecap="round" stroke-linejoin="round" stroke-width="2"/>
  <path id="Path_74919" data-name="Path 74919" d="M4.73,3.57l.75.75" transform="translate(0.197 0.149)" fill="none" stroke="#2e3036" stroke-linecap="round" stroke-linejoin="round" stroke-width="2"/>
  <path id="Path_74920" data-name="Path 74920" d="M15.43,20.876v-.9" transform="translate(0.643 0.832)" fill="none" stroke="#2e3036" stroke-linecap="round" stroke-linejoin="round" stroke-width="2"/>
  <path id="Path_74921" data-name="Path 74921" d="M22.036,14.27h-.9" transform="translate(0.88 0.594)" fill="none" stroke="#2e3036" stroke-linecap="round" stroke-linejoin="round" stroke-width="2"/>
  <path id="Path_74922" data-name="Path 74922" d="M20.46,19.3l-.75-.74" transform="translate(0.821 0.773)" fill="none" stroke="#2e3036" stroke-linecap="round" stroke-linejoin="round" stroke-width="2"/>
  <path id="Path_74923" data-name="Path 74923" d="M17.629,16.48,16.15,14.99" transform="translate(0.673 0.624)" fill="none" stroke="#fff" stroke-linecap="round" stroke-linejoin="round" stroke-width="1.5"/>
</svg>
