<svg id="Cash_Voucher" data-name="Cash Voucher" xmlns="http://www.w3.org/2000/svg" width="14.694" height="13.674" viewBox="0 0 14.694 13.674">
  <g id="Layer_1" data-name="Layer 1" transform="translate(0 0)">
    <path id="Path_75273" data-name="Path 75273" d="M11.56,1.884c0,.6-.015,1.124,0,1.651a2.276,2.276,0,0,1-.7,1.778Q7.925,8.239,5,11.174a.889.889,0,0,1-1.489.008Q1.934,9.619.37,8.047A.893.893,0,0,1,.382,6.59q2.945-2.953,5.9-5.9A2.245,2.245,0,0,1,8.014,0c.819.027,1.64.035,2.456.1a3.82,3.82,0,0,1,.86.28l-.022.174c-.143.034-.286.07-.429.1A6.5,6.5,0,0,0,7.981,2.1a.881.881,0,0,0-.175,1.141.935.935,0,0,0,1.081.417.826.826,0,0,0,.592-.993,3.45,3.45,0,0,1-.648.43c-.145.056-.443.023-.5-.07a.572.572,0,0,1,.016-.541,5.082,5.082,0,0,1,3.724-1.409,2.5,2.5,0,0,1,1.776,1.045,4.335,4.335,0,0,1,.845,2.054l-.711.176C13.544,3.175,13.214,1.888,11.56,1.884ZM6.746,7.222A1.072,1.072,0,1,0,5.679,6.143,1.081,1.081,0,0,0,6.746,7.222Zm-2.22-.334A1.086,1.086,0,0,0,3.471,5.792a1.087,1.087,0,1,0-.018,2.173A1.088,1.088,0,0,0,4.525,6.887Zm.149-2.258H4.666c.125,1.306.242,2.613.384,3.916.016.151.174.286.266.428.078-.162.221-.323.222-.485a11.574,11.574,0,0,0-.092-1.2c-.09-.956-.173-1.912-.284-2.865-.016-.137-.17-.257-.26-.385-.079.147-.163.292-.235.443-.019.039,0,.095.005.142Z" transform="translate(0 0.002)" fill="#fea409"/>
    <path id="Path_75274" data-name="Path 75274" d="M26.3,336.269c-1.043,1.784-2.08,3.573-3.137,5.349a.769.769,0,0,1-1.094.29q-2.091-1.192-4.158-2.428a.807.807,0,0,1-.291-1.135c.106-.21.236-.409.387-.668.742.743,1.442,1.445,2.143,2.145a1.471,1.471,0,0,0,2.465-.01q1.805-1.8,3.61-3.612Z" transform="translate(-17.098 -328.353)" fill="#3b3b3b"/>
    <path id="Path_75275" data-name="Path 75275" d="M244.356,219.789a1.072,1.072,0,1,1,1.1-1.044A1.08,1.08,0,0,1,244.356,219.789Zm.652-1.076c-.3-.215-.493-.447-.622-.417a.672.672,0,0,0-.424.442c-.021.11.254.387.4.393.166.007.341-.209.641-.417Z" transform="translate(-237.611 -212.565)" fill="#fff"/>
    <path id="Path_75276" data-name="Path 75276" d="M103.526,249.3a1.087,1.087,0,0,1-1.074,1.077,1.087,1.087,0,1,1,.018-2.173A1.086,1.086,0,0,1,103.526,249.3Zm-.561.1,0-.21c-.178-.113-.359-.319-.532-.312a.41.41,0,0,0-.011.818C102.6,249.716,102.784,249.515,102.964,249.407Z" transform="translate(-99.001 -242.415)" fill="#fff"/>
    <path id="Path_75277" data-name="Path 75277" d="M199.668,173.926c0-.048-.023-.1-.006-.142.072-.151.156-.3.235-.443.09.128.244.249.26.385.111.953.194,1.91.284,2.865a11.568,11.568,0,0,1,.092,1.2c0,.162-.144.323-.222.485-.092-.142-.25-.278-.266-.428-.143-1.3-.26-2.61-.384-3.916Z" transform="translate(-194.995 -169.294)" fill="#fff"/>
    <path id="Path_75278" data-name="Path 75278" d="M273.057,245.82c-.3.208-.476.424-.642.417-.15-.006-.426-.283-.4-.393a.672.672,0,0,1,.424-.442C272.564,245.373,272.753,245.6,273.057,245.82Z" transform="translate(-265.66 -239.672)" fill="#fea409"/>
    <path id="Path_75279" data-name="Path 75279" d="M131.368,277.753c-.18.108-.367.309-.539.3a.41.41,0,0,1,.011-.818c.173-.007.355.2.532.312Z" transform="translate(-127.405 -270.761)" fill="#fea409"/>
  </g>
</svg>
