<svg xmlns="http://www.w3.org/2000/svg" width="12.513" height="13.929" viewBox="0 0 12.513 13.929">
  <g id="Discount_is_expiring_soon" data-name="Discount is expiring soon" transform="translate(0.581 -1)" opacity="0.77">
    <g id="Layer_1" data-name="Layer 1" transform="translate(-0.581 1)">
      <path id="Path_75264" data-name="Path 75264" d="M57.363.787l-3.2,6.8,2.679-.536L53.78,13.929l7.3-9.676-2.9.452,3-4.7Z" transform="translate(-51.098)" fill="#fe0922"/>
      <path id="Path_75265" data-name="Path 75265" d="M91.9,34.722s2.914,1.7,2.186,6.115a5.728,5.728,0,0,1-7.511,4.8l.515-.722s4.62,1.273,6.2-4.126c0,0,1.129-2.663-1.816-5.334Z" transform="translate(-81.694 -32.742)" fill="#fe0922"/>
      <path id="Path_75266" data-name="Path 75266" d="M5.2,15.3A6.36,6.36,0,0,0,.043,20.9s-.819,3.026,2.6,5.437l.318-.8A4.576,4.576,0,0,1,.914,20.649a5.487,5.487,0,0,1,3.954-4.44Z" transform="translate(0.043 -14.572)" fill="#fe0922"/>
    </g>
  </g>
</svg>
