<svg id="Layer_2" data-name="Layer 2" xmlns="http://www.w3.org/2000/svg" width="17.985" height="16.736" viewBox="0 0 17.985 16.736">
  <g id="Layer_1" data-name="Layer 1" transform="translate(0 0)">
    <path id="Path_75340" data-name="Path 75340" d="M14.149,2.306c0,.73-.019,1.376,0,2.021A2.785,2.785,0,0,1,13.3,6.5q-3.6,3.581-7.181,7.174a1.088,1.088,0,0,1-1.823.01Q2.367,11.773.453,9.849A1.093,1.093,0,0,1,.467,8.067Q4.073,4.453,7.685.846A2.747,2.747,0,0,1,9.808,0c1,.033,2.007.042,3.006.12a4.676,4.676,0,0,1,1.052.343L13.84.675c-.175.042-.35.086-.525.125A7.953,7.953,0,0,0,9.768,2.571a1.079,1.079,0,0,0-.214,1.4,1.144,1.144,0,0,0,1.323.51A1.011,1.011,0,0,0,11.6,3.263a4.223,4.223,0,0,1-.793.527c-.178.068-.543.029-.611-.086a.7.7,0,0,1,.02-.663,6.22,6.22,0,0,1,4.558-1.724A3.061,3.061,0,0,1,16.951,2.6a5.306,5.306,0,0,1,1.034,2.514l-.871.215C16.577,3.887,16.174,2.312,14.149,2.306ZM8.257,8.84a1.313,1.313,0,1,0-1.306-1.32A1.324,1.324,0,0,0,8.257,8.84ZM5.539,8.43A1.329,1.329,0,0,0,4.248,7.09a1.33,1.33,0,1,0-.022,2.66A1.332,1.332,0,0,0,5.538,8.43Zm.182-2.764h-.01c.153,1.6.3,3.2.471,4.794.02.184.213.35.326.524.1-.2.27-.395.272-.593a14.166,14.166,0,0,0-.113-1.463c-.11-1.17-.212-2.34-.347-3.507C6.3,5.254,6.111,5.107,6,4.949c-.1.18-.2.358-.287.543-.023.048,0,.116.006.174Z" transform="translate(0 0.002)" fill="#fea409"/>
    <path id="Path_75341" data-name="Path 75341" d="M28.274,336.284c-1.277,2.184-2.545,4.373-3.839,6.547a.941.941,0,0,1-1.339.355q-2.56-1.459-5.089-2.972a.988.988,0,0,1-.356-1.389c.129-.257.288-.5.473-.818.909.91,1.765,1.768,2.623,2.625,1.088,1.086,1.921,1.083,3.017-.012q2.21-2.209,4.418-4.42Z" transform="translate(-17.007 -326.595)" fill="#3b3b3b"/>
    <path id="Path_75342" data-name="Path 75342" d="M244.6,220.27a1.312,1.312,0,1,1,1.349-1.278A1.322,1.322,0,0,1,244.6,220.27Zm.8-1.317c-.371-.263-.6-.547-.762-.511a.823.823,0,0,0-.519.54c-.026.135.311.474.495.481.2.008.417-.256.785-.511Z" transform="translate(-236.339 -211.428)" fill="#fff"/>
    <path id="Path_75343" data-name="Path 75343" d="M104.009,249.55a1.331,1.331,0,0,1-1.314,1.319,1.33,1.33,0,1,1,.022-2.66A1.329,1.329,0,0,1,104.009,249.55Zm-.687.125.006-.257c-.218-.139-.44-.39-.652-.381a.5.5,0,0,0-.014,1C102.873,250.053,103.1,249.807,103.322,249.675Z" transform="translate(-98.472 -241.117)" fill="#fff"/>
    <path id="Path_75344" data-name="Path 75344" d="M199.671,174.057c0-.059-.029-.128-.007-.174.088-.185.191-.362.287-.543.11.157.3.3.318.471.136,1.167.237,2.337.347,3.507a14.159,14.159,0,0,1,.113,1.463c0,.2-.176.4-.272.593-.113-.174-.306-.34-.326-.524-.175-1.6-.318-3.2-.471-4.794Z" transform="translate(-193.951 -168.388)" fill="#fff"/>
    <path id="Path_75345" data-name="Path 75345" d="M273.291,245.914c-.367.255-.582.519-.786.511-.184-.007-.521-.346-.495-.481a.822.822,0,0,1,.519-.541C272.688,245.367,272.92,245.651,273.291,245.914Z" transform="translate(-264.238 -238.389)" fill="#fea409"/>
    <path id="Path_75346" data-name="Path 75346" d="M131.573,277.87c-.221.133-.449.378-.659.363a.5.5,0,0,1,.014-1c.212-.009.434.243.652.381Z" transform="translate(-126.723 -269.312)" fill="#fea409"/>
  </g>
</svg>
