<svg id="gear" xmlns="http://www.w3.org/2000/svg" width="26.116" height="26.006" viewBox="0 0 26.116 26.006">
  <path id="Path_56720" data-name="Path 56720" d="M138.255,137.161a1.525,1.525,0,1,0,.831.819A1.514,1.514,0,0,0,138.255,137.161Zm0,0" transform="translate(-129.212 -130.083)" fill="#fea409"/>
  <path id="Path_56721" data-name="Path 56721" d="M13.139,13.569,15.4,13.6h.011a.762.762,0,0,0,.706-.476l.743-1.831a.762.762,0,0,0-.184-.841L15.03,8.906l1.618-1.572a.762.762,0,0,0,.171-.843l-.77-1.82a.763.763,0,0,0-.724-.465l-2.255.066L13.1,2.016a.762.762,0,0,0-.476-.717L10.794.556a.763.763,0,0,0-.841.184L8.405,2.381,6.833.763A.762.762,0,0,0,5.989.592l-1.82.77a.763.763,0,0,0-.465.724l.066,2.255L1.515,4.31A.76.76,0,0,0,.8,4.786L.055,6.617a.763.763,0,0,0,.184.841L1.88,9.005.262,10.578a.762.762,0,0,0-.171.843l.77,1.82a.762.762,0,0,0,.724.465l2.255-.066L3.809,15.9a.762.762,0,0,0,.476.717l1.832.743a.762.762,0,0,0,.841-.184L8.505,15.53l1.572,1.618a.762.762,0,0,0,.844.171l1.82-.77a.762.762,0,0,0,.465-.724Zm-1.844-3.434A3.049,3.049,0,1,1,11.277,7.8a3.029,3.029,0,0,1,.018,2.333Zm0,0" transform="translate(0.001 -0.5)" fill="#fea409"/>
  <path id="Path_56722" data-name="Path 56722" d="M367.889,365.875a.893.893,0,1,0,.893.893A.894.894,0,0,0,367.889,365.875Zm0,0" transform="translate(-348.276 -347.238)" fill="#2e3036"/>
  <path id="Path_56723" data-name="Path 56723" d="M269.517,260.415l-1.325-.515.573-1.3a.762.762,0,0,0-.159-.846l-1.015-1.015a.762.762,0,0,0-.846-.159l-1.3.573-.515-1.325a.762.762,0,0,0-.71-.486h-1.436a.762.762,0,0,0-.71.486l-.515,1.325-1.3-.572a.762.762,0,0,0-.846.159l-1.016,1.015a.762.762,0,0,0-.159.846l.573,1.3-1.325.515a.762.762,0,0,0-.486.71v1.436a.762.762,0,0,0,.486.71l1.325.515-.573,1.3a.762.762,0,0,0,.159.846l1.015,1.016a.762.762,0,0,0,.846.159l1.3-.573.515,1.325a.762.762,0,0,0,.71.486h1.436a.762.762,0,0,0,.71-.486l.515-1.325,1.3.573a.762.762,0,0,0,.846-.159l1.015-1.015a.762.762,0,0,0,.159-.846l-.573-1.3,1.325-.515a.762.762,0,0,0,.486-.71v-1.436a.762.762,0,0,0-.486-.71Zm-6.018,3.873a2.417,2.417,0,1,1,2.417-2.417A2.42,2.42,0,0,1,263.5,264.288Zm0,0" transform="translate(-243.887 -242.341)" fill="#2e3036"/>
</svg>
