<svg xmlns="http://www.w3.org/2000/svg" width="16.046" height="16.046" viewBox="0 0 16.046 16.046">
  <g id="facebook-color" transform="translate(0 0)">
    <g id="Group_68415" data-name="Group 68415">
      <path id="Path_1232" data-name="Path 1232" d="M208.571,176.046h-7.685a.886.886,0,0,1-.886-.886V160.886a.886.886,0,0,1,.886-.886H215.16a.886.886,0,0,1,.886.886V175.16a.886.886,0,0,1-.886.886h-4.089v-6.214h2.086l.312-2.422h-2.4v-1.546c0-.7.195-1.179,1.2-1.179h1.282v-2.166a17.183,17.183,0,0,0-1.868-.1,2.918,2.918,0,0,0-3.115,3.2v1.786H206.48v2.422h2.091v6.214Z" transform="translate(-200 -160)" fill="#4460a0" fill-rule="evenodd"/>
    </g>
  </g>
</svg>
