<svg id="google-7fd162b327d42b755efbe828d0a329b7" xmlns="http://www.w3.org/2000/svg" width="15.794" height="16.116" viewBox="0 0 15.794 16.116">
  <path id="Path_1228" data-name="Path 1228" d="M16.736,9.012a9.264,9.264,0,0,0-.146-1.648H9V10.48h4.337a3.707,3.707,0,0,1-1.608,2.432v2.022h2.6A7.859,7.859,0,0,0,16.736,9.012Z" transform="translate(-0.942 -0.771)" fill="#4285f4" fill-rule="evenodd"/>
  <path id="Path_1229" data-name="Path 1229" d="M8.158,17.237a7.693,7.693,0,0,0,5.333-1.952l-2.6-2.022A4.861,4.861,0,0,1,3.649,10.71H.957V12.8A8.055,8.055,0,0,0,8.158,17.237Z" transform="translate(-0.1 -1.121)" fill="#34a853" fill-rule="evenodd"/>
  <path id="Path_1230" data-name="Path 1230" d="M3.549,10.108a4.764,4.764,0,0,1,0-3.062V4.958H.857a8.068,8.068,0,0,0,0,7.238Z" transform="translate(0 -0.519)" fill="#fbbc05" fill-rule="evenodd"/>
  <path id="Path_1231" data-name="Path 1231" d="M8.158,3.2a4.353,4.353,0,0,1,3.08,1.205L13.55,2.1A7.744,7.744,0,0,0,8.158,0a8.055,8.055,0,0,0-7.2,4.439L3.649,6.527A4.8,4.8,0,0,1,8.158,3.2Z" transform="translate(-0.1)" fill="#ea4335" fill-rule="evenodd"/>
</svg>
