<svg xmlns="http://www.w3.org/2000/svg" width="29" height="29" viewBox="0 0 29 29">
  <g id="Group_70353" data-name="Group 70353" transform="translate(-10186.478 -2213.478)">
    <circle id="Ellipse_2910" data-name="Ellipse 2910" cx="14.5" cy="14.5" r="14.5" transform="translate(10186.478 2213.478)" fill="#fff" opacity="0.7"/>
    <g id="Layer_2" data-name="Layer 2" transform="translate(10193.578 2218.735)">
      <g id="Layer_1" data-name="Layer 1" transform="translate(0)">
        <path id="Path_75303" data-name="Path 75303" d="M157.694,205.185a3.846,3.846,0,1,1,3.883-3.815A3.866,3.866,0,0,1,157.694,205.185Zm.008-.488a3.342,3.342,0,1,0-2.365-.986A3.345,3.345,0,0,0,157.7,204.7Z" transform="translate(-151.55 -194.509)"/>
        <path id="Path_75304" data-name="Path 75304" d="M665.936,420.078a2.369,2.369,0,1,1,2.293,2.438A2.374,2.374,0,0,1,665.936,420.078Zm2.354,2a1.912,1.912,0,0,0,1.941-1.921,1.935,1.935,0,1,0-1.941,1.921Z" transform="translate(-655.877 -411.474)"/>
        <path id="Path_75305" data-name="Path 75305" d="M125.016,865.54a2.368,2.368,0,1,1-2.36-2.372A2.385,2.385,0,0,1,125.016,865.54Zm-2.359,1.93a1.938,1.938,0,1,0-1.94-1.93A1.924,1.924,0,0,0,122.657,867.469Z" transform="translate(-118.463 -850.129)"/>
        <path id="Path_75306" data-name="Path 75306" d="M16,114.239a2.783,2.783,0,0,1,4.077-2.572c.142.081.21.291.312.44a1.674,1.674,0,0,1-.5-.075,2.35,2.35,0,0,0-2.648,3.849,1.819,1.819,0,0,1,.259.437c-.176-.04-.4-.026-.522-.128A2.633,2.633,0,0,1,16,114.239Z" transform="translate(-15.754 -109.639)"/>
        <path id="Path_75307" data-name="Path 75307" d="M505.467,45.279a1.289,1.289,0,1,1-2.577-.024,1.309,1.309,0,0,1,1.3-1.263A1.3,1.3,0,0,1,505.467,45.279Zm-.423-.03a.862.862,0,0,0-1.724.039.862.862,0,1,0,1.723-.038Z" transform="translate(-495.294 -43.327)"/>
        <path id="Path_75308" data-name="Path 75308" d="M19.386,605.175a1.286,1.286,0,0,1-2.572-.056,1.286,1.286,0,1,1,2.572.056Zm-1.278-.9a.869.869,0,0,0-.864.84.85.85,0,0,0,.88.869.862.862,0,0,0,.84-.86A.876.876,0,0,0,18.108,604.274Z" transform="translate(-16.56 -594.733)"/>
        <path id="Path_75309" data-name="Path 75309" d="M796.091,1.308a1.286,1.286,0,0,1-2.571-.021,1.286,1.286,0,1,1,2.571.021Zm-.425,0a.861.861,0,0,0-1.721-.063.861.861,0,1,0,1.721.063Z" transform="translate(-781.534 0.002)"/>
        <path id="Path_75310" data-name="Path 75310" d="M458.589,729.656a1.558,1.558,0,0,1-.01-3.116,1.558,1.558,0,1,1,.01,3.116Zm0-.289a1.269,1.269,0,0,0,1.271-1.286,1.276,1.276,0,0,0-2.553.018A1.254,1.254,0,0,0,458.593,729.367Z" transform="translate(-450.126 -715.566)"/>
        <path id="Path_75311" data-name="Path 75311" d="M3.085,990.272a2.045,2.045,0,0,1-.364.349,1.837,1.837,0,1,1-1.532-3.331,1.045,1.045,0,0,1,.4.033c-.085.1-.15.238-.257.293a1.5,1.5,0,0,0-.82,2,1.491,1.491,0,0,0,2.1.628A2.647,2.647,0,0,1,3,990.133Z" transform="translate(-0.006 -972.364)"/>
        <path id="Path_75312" data-name="Path 75312" d="M66.2,175.464a1.323,1.323,0,0,1-.012-1.473,1.436,1.436,0,0,1,1.215-.872A2.075,2.075,0,0,0,66.2,175.464Z" transform="translate(-64.969 -170.505)"/>
        <path id="Path_75313" data-name="Path 75313" d="M51.608,1027.34l-.8.9C50.673,1027.756,51,1027.371,51.608,1027.34Z" transform="translate(-50.009 -1011.822)"/>
        <path id="Path_75314" data-name="Path 75314" d="M230.034,262.508a6.85,6.85,0,0,0-1.762.912,6.433,6.433,0,0,0-.958,1.689,2.358,2.358,0,0,1,2.721-2.6Z" transform="translate(-223.796 -258.439)"/>
        <path id="Path_75315" data-name="Path 75315" d="M719.924,465.815a1.712,1.712,0,0,0-1.583,1.68A1.331,1.331,0,0,1,719.924,465.815Z" transform="translate(-707.422 -458.752)"/>
        <path id="Path_75316" data-name="Path 75316" d="M172.522,908.714a1.708,1.708,0,0,0-1.561,1.573.926.926,0,0,1,.235-1.127A1.233,1.233,0,0,1,172.522,908.714Z" transform="translate(-168.279 -894.938)"/>
      </g>
    </g>
  </g>
</svg>
