<svg id="lock.3" xmlns="http://www.w3.org/2000/svg" width="24" height="24" viewBox="0 0 24 24">
  <g id="Group_69615" data-name="Group 69615">
    <path id="Path_74873" data-name="Path 74873" d="M17,21H7a2,2,0,0,1-2-2V12a2,2,0,0,1,2-2H17a2,2,0,0,1,2,2v7A2,2,0,0,1,17,21Z" fill="none" stroke="#323232" stroke-linecap="round" stroke-linejoin="round" stroke-width="1.5"/>
    <path id="Path_74874" data-name="Path 74874" d="M8,10V7H8a4,4,0,0,1,4-4h0a4,4,0,0,1,4,4h0v3" fill="none" stroke="#323232" stroke-linecap="round" stroke-linejoin="round" stroke-width="1.5"/>
  </g>
  <path id="Path_74875" data-name="Path 74875" d="M0,0H24V24H0Z" fill="none"/>
</svg>
