<svg id="maintenance" xmlns="http://www.w3.org/2000/svg" width="22" height="22" viewBox="0 0 22 22">
  <path id="Path_46935" data-name="Path 46935" d="M21.482,9.079l-1.048-.2a9.552,9.552,0,0,0-1.265-3.045l.57-.857a.644.644,0,0,0-.081-.813L17.836,2.341a.643.643,0,0,0-.813-.081l-.857.57a9.554,9.554,0,0,0-3.044-1.264l-.2-1.048A.645.645,0,0,0,12.289,0H9.711a.645.645,0,0,0-.632.518l-.2,1.048A9.552,9.552,0,0,0,5.834,2.831l-.857-.57a.644.644,0,0,0-.813.081L2.341,4.164a.644.644,0,0,0-.081.813l.57.857A9.555,9.555,0,0,0,1.566,8.878l-1.048.2A.645.645,0,0,0,0,9.711v2.578a.645.645,0,0,0,.518.632l1.048.2a9.552,9.552,0,0,0,1.265,3.045l-.57.857a.644.644,0,0,0,.081.813l1.823,1.823a.645.645,0,0,0,.813.081l.857-.57a9.555,9.555,0,0,0,3.045,1.265l.2,1.048A.645.645,0,0,0,9.711,22h2.578a.645.645,0,0,0,.632-.518l.2-1.048a9.552,9.552,0,0,0,3.045-1.265l.857.57a.643.643,0,0,0,.813-.081l1.823-1.823a.644.644,0,0,0,.081-.813l-.57-.857a9.555,9.555,0,0,0,1.265-3.045l1.048-.2A.645.645,0,0,0,22,12.289V9.711A.645.645,0,0,0,21.482,9.079ZM11,18.09A7.09,7.09,0,1,1,18.09,11,7.1,7.1,0,0,1,11,18.09Z" fill="#fea409"/>
  <g id="Group_59616" data-name="Group 59616" transform="translate(7.134 6.489)">
    <path id="Path_46936" data-name="Path 46936" d="M287.061,151.164a.645.645,0,0,0-1.032.515v2.575h2.578v0A3.861,3.861,0,0,0,287.061,151.164Z" transform="translate(-280.873 -151.034)" fill="#2e3036"/>
    <path id="Path_46937" data-name="Path 46937" d="M168.607,151.673a.643.643,0,0,0-1.031-.515,3.861,3.861,0,0,0-1.546,3.089v0h2.577Z" transform="translate(-166.03 -151.028)" fill="#2e3036"/>
    <path id="Path_46938" data-name="Path 46938" d="M173.746,258.346v3.3a5.448,5.448,0,0,0,2.578,0v-3.3A3.88,3.88,0,0,0,178.67,256H171.4A3.88,3.88,0,0,0,173.746,258.346Z" transform="translate(-171.169 -251.49)" fill="#2e3036"/>
  </g>
</svg>
