<svg id="Layer_1" data-name="Layer 1" xmlns="http://www.w3.org/2000/svg" width="28.202" height="28" viewBox="0 0 28.202 28">
  <path id="Path_75446" data-name="Path 75446" d="M28.876,27.176l-16.5,8.983a2.579,2.579,0,0,1-3.535-1.1L2.477,22.478A2.89,2.89,0,0,1,3.6,18.805l14.5-7.344,1.961-.993a1.885,1.885,0,0,1,2.57.908l.448,1a1.879,1.879,0,0,1,1.537,1.095L29.692,24.76A1.879,1.879,0,0,1,28.876,27.176Z" transform="translate(-1.858 -8.678)" fill="#e77f25"/>
  <g id="Group_70450" data-name="Group 70450" transform="translate(1.731 2.393)" opacity="0.3">
    <path id="Path_75447" data-name="Path 75447" d="M13.949,24.786c-.837.827-4.345.665-1.9-1.007l14.181-7.2,1.792-.908a1.882,1.882,0,0,1,2.568.908" transform="translate(-11.195 -15.473)" fill="#630e0e"/>
  </g>
  <g id="Group_70451" data-name="Group 70451" transform="translate(7.877 9.602)" opacity="0.3">
    <path id="Path_75448" data-name="Path 75448" d="M70.08,70.986l-16.5,8.983a2.579,2.579,0,0,1-2.638-.11,2.568,2.568,0,0,0,1.474-.309l16.5-8.969a1.879,1.879,0,0,0,.815-2.422L68.978,66.5l-2.97,1.537A2.185,2.185,0,0,1,64,64.154L67.186,62.5l.8-.413,1.792,3.991,1.118,2.49A1.879,1.879,0,0,1,70.08,70.986Z" transform="translate(-50.94 -62.09)" fill="#630e0e"/>
  </g>
  <g id="Group_70452" data-name="Group 70452" transform="translate(20.995 3.6)" opacity="0.3">
    <path id="Path_75449" data-name="Path 75449" d="M139.7,29.281l-.8.413-2.533-5.626a1.846,1.846,0,0,0-.6-.741l.187-.048.042.094a1.879,1.879,0,0,1,1.537,1.1Z" transform="translate(-135.77 -23.28)" fill="#630e0e"/>
  </g>
  <g id="Group_70453" data-name="Group 70453" transform="translate(2.797 3.752)" opacity="0.6">
    <path id="Path_75450" data-name="Path 75450" d="M36.828,24.26h0a13.86,13.86,0,0,0-1.8.773L20.7,32.38a3.351,3.351,0,0,1-1.378.37A7.868,7.868,0,0,1,18.09,32.7a5.749,5.749,0,0,0,2.245-.518l14.975-7.7C35.342,24.469,36.828,24.26,36.828,24.26Z" transform="translate(-18.09 -24.26)" fill="#fff"/>
  </g>
  <g id="Group_70454" data-name="Group 70454" transform="translate(0.34 1.584)" opacity="0.6">
    <path id="Path_75451" data-name="Path 75451" d="M21.526,10.342a1.88,1.88,0,0,0-.824.2l-1.961.993-14.5,7.348a2.893,2.893,0,0,0-1.126,3.673L9.482,35.139a2.565,2.565,0,0,0,1.58,1.311,2.576,2.576,0,0,1-2.219-1.413L2.477,22.457A2.89,2.89,0,0,1,3.6,18.785l14.5-7.344,1.961-.993a1.879,1.879,0,0,1,1.463-.107Z" transform="translate(-2.198 -10.242)" fill="#fff"/>
  </g>
  <path id="Path_75452" data-name="Path 75452" d="M12.769,16.225,9.825,17.713l-4.1,2.074-1.947-1.12L1.32,17.256,5.79,9.48,10.2,12.018l.574.94Z" transform="translate(-1.116 -8.014)" fill="#35b560"/>
  <path id="Path_75453" data-name="Path 75453" d="M19.09,22.376,16.7,21a.928.928,0,0,1-1.262.342l-2.582,4.5A.928.928,0,0,1,13.2,27.1l1.356.773L16.519,29l4.211-2.047-2.094-2.983-.111-.221-.448-.583Z" transform="translate(-10.871 -17.752)" fill="#77c586"/>
  <circle id="Ellipse_2915" data-name="Ellipse 2915" cx="1.149" cy="1.149" r="1.149" transform="translate(5.579 6.973)" fill="#34b562"/>
  <g id="Group_70455" data-name="Group 70455" transform="translate(6.781 4.944)" opacity="0.3">
    <path id="Path_75454" data-name="Path 75454" d="M48.722,35.237l-2.944,1.488-.366-.513-.518-.725-1.044-1.46,1.979-1.415.9-.642Z" transform="translate(-43.85 -31.97)" fill="#630e0e"/>
  </g>
  <path id="Path_75455" data-name="Path 75455" d="M56.729,6.177,55.617,4.62l-.52-.725L53.259,1.32l-5.319,3.8L45.96,6.533,47,7.992l.518.727,1.112,1.557" transform="translate(-38.853 -1.115)" fill="#35b560"/>
  <path id="Path_75456" data-name="Path 75456" d="M66.184,16.951l-1.112-1.557L63.9,13.755a.928.928,0,0,1-1.288-.215l-4.218,3.009a.928.928,0,0,1-.215,1.288l.546.765,1.113,1.557" transform="translate(-49.183 -11.446)" fill="#77c586"/>
  <g id="Group_70456" data-name="Group 70456" transform="translate(7.107 0.205)" opacity="0.6">
    <path id="Path_75457" data-name="Path 75457" d="M56.729,6.177l-.373.189L55.527,5.2l-.52-.725L53.171,1.9,47.851,5.7,46.206,6.876l-.246-.343,1.979-1.413,5.319-3.8L55.1,3.895l.52.725Z" transform="translate(-45.96 -1.32)" fill="#fff"/>
  </g>
  <g id="Group_70457" data-name="Group 70457" transform="translate(0.204 1.466)" opacity="0.55">
    <path id="Path_75458" data-name="Path 75458" d="M10.2,12.018l-.407.291L5.978,10.114,1.734,17.495l-.414-.238L5.79,9.48Z" transform="translate(-1.32 -9.48)" fill="#fff"/>
  </g>
  <circle id="Ellipse_2916" data-name="Ellipse 2916" cx="1.149" cy="1.149" r="1.149" transform="translate(12.165 4.956)" fill="#34b562"/>
  <path id="Path_75459" data-name="Path 75459" d="M11.547,47.061a2.818,2.818,0,0,1-.833-.127,2.768,2.768,0,0,1-1.655-1.4L2.69,32.954a.206.206,0,0,1,.09-.275.2.2,0,0,1,.274.091L9.423,45.349a2.377,2.377,0,0,0,3.255,1.014l16.5-8.983a1.684,1.684,0,0,0,.727-2.165l-5.07-11.274a1.689,1.689,0,0,0-1.37-.983,1.665,1.665,0,0,0-.92.175L7.167,30.916c-.08.039-.155.074-.224.105-1.365.6-2.74.581-3.065-.053-.105-.2-.223-.752.928-1.43a.2.2,0,1,1,.212.348c-.654.385-.861.725-.773.892.144.281,1.143.481,2.536-.136q.1-.042.209-.1l15.369-7.772A2.089,2.089,0,0,1,25.2,23.78l5.072,11.279a2.092,2.092,0,0,1-.9,2.684l-16.5,8.978A2.762,2.762,0,0,1,11.547,47.061Z" transform="translate(-2.256 -19.061)" fill="#630e0e"/>
  <path id="Path_75460" data-name="Path 75460" d="M107.292,15.693a.2.2,0,0,1-.182-.111.206.206,0,0,1,.09-.275L109,14.4a2.088,2.088,0,0,1,2.847,1.005.2.2,0,0,1-.373.169,1.679,1.679,0,0,0-2.29-.807l-1.8.9A.193.193,0,0,1,107.292,15.693Z" transform="translate(-90.529 -11.981)" fill="#630e0e"/>
  <path id="Path_75461" data-name="Path 75461" d="M10.99,87.069h-.02a1.3,1.3,0,0,1-.56-.2.139.139,0,0,1,.155-.227,1.02,1.02,0,0,0,.441.155.139.139,0,0,1-.022.277Z" transform="translate(-8.763 -73.229)" fill="#630e0e"/>
  <path id="Path_75462" data-name="Path 75462" d="M26.916,53.1a.141.141,0,0,1-.138-.114.139.139,0,0,1,.113-.155,3.021,3.021,0,0,0,.892-.328l.077-.042a.139.139,0,1,1,.131.246l-.077.042a3.213,3.213,0,0,1-.974.354Zm1.965-.9a.136.136,0,0,1-.122-.074.138.138,0,0,1,.057-.187l.957-.512a.141.141,0,0,1,.189.057.138.138,0,0,1-.057.187l-.957.513a.155.155,0,0,1-.066.015ZM30.8,51.172a.139.139,0,0,1-.065-.261l.957-.512a.139.139,0,1,1,.131.244l-.957.513a.155.155,0,0,1-.066.019Zm1.916-1.025a.139.139,0,0,1-.066-.261l.959-.513a.139.139,0,0,1,.131.246l-.959.512a.124.124,0,0,1-.065.02Zm1.916-1.025a.144.144,0,0,1-.124-.074.139.139,0,0,1,.057-.187l.959-.513a.139.139,0,0,1,.131.244l-.959.515a.141.141,0,0,1-.065.019ZM36.545,48.1a.142.142,0,0,1-.124-.073.141.141,0,0,1,.057-.189l.959-.512a.138.138,0,0,1,.13.244l-.957.513a.142.142,0,0,1-.065.019Zm1.914-1.025A.138.138,0,0,1,38.337,47a.139.139,0,0,1,.057-.189l.957-.513a.139.139,0,1,1,.131.246l-.957.512a.13.13,0,0,1-.066.02Zm1.91-1.022a.139.139,0,0,1-.122-.074.138.138,0,0,1,.057-.187l.957-.513a.139.139,0,1,1,.131.244l-.957.513A.155.155,0,0,1,40.369,46.048Zm1.916-1.027a.139.139,0,0,1-.065-.261l.854-.464c.031-.017.063-.034.093-.054a.141.141,0,0,1,.192.043.138.138,0,0,1-.043.192c-.036.023-.073.045-.108.063L42.35,45a.139.139,0,0,1-.059.017Zm1.668-1.327a.13.13,0,0,1-.057-.014.138.138,0,0,1-.068-.184,1.771,1.771,0,0,0,.155-.728,1.733,1.733,0,0,0-.019-.254.139.139,0,1,1,.275-.04,2.072,2.072,0,0,1,.022.294,2.041,2.041,0,0,1-.186.844A.141.141,0,0,1,43.953,43.694Zm-.229-2.067a.136.136,0,0,1-.125-.08l-.447-.988a.139.139,0,1,1,.247-.111l.452.988a.139.139,0,0,1-.068.184.13.13,0,0,1-.059.008ZM20.636,40.164a.139.139,0,0,1-.028-.275,5.085,5.085,0,0,0,1.005-.323.142.142,0,0,1,.11.263,5.394,5.394,0,0,1-1.059.34Zm22.185-.513a.141.141,0,0,1-.127-.08l-.452-.988a.139.139,0,1,1,.254-.116l.452.988a.139.139,0,0,1-.068.184A.135.135,0,0,1,42.822,39.651Zm-20.18-.3a.139.139,0,0,1-.056-.263l.962-.495a.14.14,0,0,1,.121.252l-.963.49A.133.133,0,0,1,22.642,39.349Zm1.938-.982a.139.139,0,0,1-.124-.077.138.138,0,0,1,.062-.186l.968-.492a.139.139,0,1,1,.127.247l-.97.492A.155.155,0,0,1,24.579,38.367Zm17.336-.693a.139.139,0,0,1-.127-.08l-.452-.988a.139.139,0,0,1,.068-.186.142.142,0,0,1,.186.07l.452.988a.141.141,0,0,1-.07.184A.124.124,0,0,1,41.915,37.674Zm-15.4-.291a.138.138,0,0,1-.124-.076.139.139,0,0,1,.057-.187l.97-.492a.139.139,0,1,1,.125.249l-.97.49A.131.131,0,0,1,26.519,37.384Zm1.944-.982a.139.139,0,0,1-.063-.263l.963-.486a.141.141,0,0,1,.187.06.139.139,0,0,1-.062.187l-.968.492A.133.133,0,0,1,28.462,36.4Zm12.559-.7a.139.139,0,0,1-.127-.08l-.452-.988a.139.139,0,1,1,.252-.116l.447.985a.139.139,0,0,1-.068.184.155.155,0,0,1-.059.015ZM30.4,35.418a.139.139,0,0,1-.063-.263l.968-.49a.139.139,0,0,1,.127.247l-.97.492A.155.155,0,0,1,30.4,35.418Zm1.933-.982a.139.139,0,0,1-.063-.263l.97-.492a.139.139,0,1,1,.125.247l-.965.487A.127.127,0,0,1,32.328,34.436Zm7.78-.714a.138.138,0,0,1-.127-.08l-.452-.99a.139.139,0,0,1,.066-.184.141.141,0,0,1,.184.07l.452.988a.139.139,0,0,1-.068.184.155.155,0,0,1-.051.012Zm-5.842-.269a.139.139,0,0,1-.062-.263l.968-.49a.139.139,0,0,1,.127.247l-.96.492a.155.155,0,0,1-.068.014Zm1.939-.982a.139.139,0,0,1-.063-.263l.98-.492a.139.139,0,0,1,.125.249l-.97.49a.131.131,0,0,1-.068.015Zm2.946-.693a.139.139,0,0,1-.1-.042.891.891,0,0,0-.628-.258.838.838,0,0,0-.232.031.138.138,0,0,1-.17-.1.139.139,0,0,1,.1-.172,1.206,1.206,0,0,1,.309-.04,1.169,1.169,0,0,1,.83.348.139.139,0,0,1-.1.237Z" transform="translate(-17.329 -26.375)" fill="#630e0e"/>
  <path id="Path_75463" data-name="Path 75463" d="M51.755,169.265a.154.154,0,0,1-.051-.009,1.928,1.928,0,0,1-.5-.285.139.139,0,0,1,.17-.22A1.7,1.7,0,0,0,51.8,169a.139.139,0,0,1-.049.267Z" transform="translate(-43.243 -142.632)" fill="#630e0e"/>
  <path id="Path_75464" data-name="Path 75464" d="M108.912,11.462a.2.2,0,0,1-.186-.121l-.45-.994a1.676,1.676,0,0,0-2.29-.809l-1.961.993a.207.207,0,0,1-.275-.091.2.2,0,0,1,.09-.274l1.962-.993a2.084,2.084,0,0,1,2.847,1.007l.45,1a.2.2,0,0,1-.1.269A.193.193,0,0,1,108.912,11.462Z" transform="translate(-87.689 -7.564)" fill="#630e0e"/>
  <path id="Path_75465" data-name="Path 75465" d="M1.346,68.243a.2.2,0,0,1-.181-.108,3.1,3.1,0,0,1,1.2-3.942.2.2,0,0,1,.221.345,2.674,2.674,0,0,0-1.056,3.4.206.206,0,0,1-.084.277A.213.213,0,0,1,1.346,68.243Z" transform="translate(-0.728 -54.239)" fill="#630e0e"/>
  <path id="Path_75466" data-name="Path 75466" d="M47.517,9.362a.206.206,0,0,1-.167-.087L44.678,5.533a.2.2,0,0,1-.036-.155.206.206,0,0,1,.082-.131l7.3-5.211A.2.2,0,0,1,52.179,0a.206.206,0,0,1,.133.082l3.465,4.863a.2.2,0,0,1-.046.285.207.207,0,0,1-.286-.048L52.1.486,45.128,5.462l2.555,3.577a.2.2,0,0,1-.165.323Z" transform="translate(-37.736 0.003)" fill="#630e0e"/>
  <path id="Path_75467" data-name="Path 75467" d="M58.862,19.368a.176.176,0,0,1-.141-.082l-1.664-2.319a.178.178,0,0,1,.042-.249.745.745,0,0,0,.173-1.039.178.178,0,0,1,.042-.249l4.217-3.009a.181.181,0,0,1,.251.042.747.747,0,0,0,1.039.175.178.178,0,0,1,.249.042l2.282,3.2a.178.178,0,1,1-.291.206l-2.188-3.062a1.107,1.107,0,0,1-1.268-.212l-3.949,2.821a1.109,1.109,0,0,1-.212,1.27l1.563,2.188a.178.178,0,0,1-.042.249A.173.173,0,0,1,58.862,19.368Z" transform="translate(-48.206 -10.471)" fill="#630e0e"/>
  <path id="Path_75468" data-name="Path 75468" d="M4.6,18.879a.2.2,0,0,1-.1-.028L.1,16.321a.2.2,0,0,1-.074-.278L4.5,8.268a.206.206,0,0,1,.28-.076l4.412,2.536a.206.206,0,0,1,.076.28.2.2,0,0,1-.278.074L4.75,8.649.482,16.071,4.706,18.5a.2.2,0,0,1-.1.382Z" transform="translate(0 -6.902)" fill="#630e0e"/>
  <path id="Path_75469" data-name="Path 75469" d="M15.542,28.215a.17.17,0,0,1-.09-.025l-3.317-1.907a.178.178,0,0,1-.066-.244.745.745,0,0,0-.274-1.017.176.176,0,0,1-.066-.243l2.582-4.494a.189.189,0,0,1,.108-.083.181.181,0,0,1,.136.017.745.745,0,0,0,1.017-.274.178.178,0,0,1,.243-.07L18.2,21.252a.178.178,0,0,1-.178.309l-2.245-1.29a1.1,1.1,0,0,1-1.237.334L12.12,24.815a1.1,1.1,0,0,1,.336,1.237l3.175,1.829a.179.179,0,0,1-.088.334Z" transform="translate(-9.895 -16.783)" fill="#630e0e"/>
  <path id="Path_75470" data-name="Path 75470" d="M132.185,60.424l-4.1,2.118a2.183,2.183,0,0,1-2.989-1.028h0a2.185,2.185,0,0,1,.982-2.847l4.234-2.2a.533.533,0,0,1,.731.252l1.379,3A.535.535,0,0,1,132.185,60.424Z" transform="translate(-105.588 -47.688)" fill="#e77f25"/>
  <g id="Group_70458" data-name="Group 70458" transform="translate(20.664 12.065)" opacity="0.6">
    <circle id="Ellipse_2917" data-name="Ellipse 2917" cx="0.962" cy="0.962" r="0.962" fill="#fff"/>
  </g>
  <g id="Group_70459" data-name="Group 70459" transform="translate(19.419 8.884)" opacity="0.3">
    <path id="Path_75471" data-name="Path 75471" d="M132.758,61.3l-4.095,2.118a2.183,2.183,0,0,1-2.989-1.028,2.221,2.221,0,0,1-.094-.241,2.185,2.185,0,0,0,2.76.642l4.095-2.118a.535.535,0,0,0,.241-.7l-1.155-2.525a.555.555,0,0,1,.1.155l1.379,3A.535.535,0,0,1,132.758,61.3Z" transform="translate(-125.58 -57.45)" fill="#630e0e"/>
  </g>
  <g id="Group_70460" data-name="Group 70460" transform="translate(19.312 8.723)" opacity="0.6">
    <path id="Path_75472" data-name="Path 75472" d="M131.037,56.72a.54.54,0,0,0-.377.045l-4.234,2.19a2.187,2.187,0,0,0-.98,2.853,2.148,2.148,0,0,0,.422.619,2.183,2.183,0,0,1,.2-3.759l4.234-2.2a.535.535,0,0,1,.731.249Z" transform="translate(-124.89 -56.411)" fill="#fff"/>
  </g>
  <path id="Path_75473" data-name="Path 75473" d="M125.984,61.9a2.391,2.391,0,0,1-1.1-4.512l4.234-2.191a.739.739,0,0,1,1.01.348l1.379,3a.739.739,0,0,1-.332.965l-4.1,2.118A2.361,2.361,0,0,1,125.984,61.9Zm3.471-6.382a.328.328,0,0,0-.155.037l-4.231,2.191a1.981,1.981,0,1,0,1.82,3.518l4.1-2.12h0a.329.329,0,0,0,.155-.431l-1.386-3a.323.323,0,0,0-.192-.175A.332.332,0,0,0,129.456,55.523Z" transform="translate(-104.482 -46.596)" fill="#630e0e"/>
  <circle id="Ellipse_2918" data-name="Ellipse 2918" cx="0.962" cy="0.962" r="0.962" transform="translate(20.497 11.954)" fill="#630e0e"/>
  <g id="Group_70461" data-name="Group 70461" transform="translate(6.351 13.671)" opacity="0.19">
    <path id="Path_75474" data-name="Path 75474" d="M45.781,92.671l-2.165,1.106a.858.858,0,0,1-1.166-.4l-1.293-2.657a.858.858,0,0,1,.385-1.146L43.7,88.5a.858.858,0,0,1,1.157.387l1.305,2.635A.861.861,0,0,1,45.781,92.671Z" transform="translate(-41.069 -88.404)" fill="#fff"/>
  </g>
  <g id="Group_70462" data-name="Group 70462" transform="translate(9.126 19.418)" opacity="0.19">
    <path id="Path_75475" data-name="Path 75475" d="M62.786,127.167,60.058,128.5a.566.566,0,0,1-.758-.26l-.226-.464a.566.566,0,0,1,.249-.752l2.692-1.392a.564.564,0,0,1,.773.252l.255.521A.566.566,0,0,1,62.786,127.167Z" transform="translate(-59.017 -125.572)" fill="#fff"/>
  </g>
  <g id="Group_70463" data-name="Group 70463" transform="translate(20.684 12.15)" opacity="0.19">
    <ellipse id="Ellipse_2919" data-name="Ellipse 2919" cx="0.402" cy="0.223" rx="0.402" ry="0.223" transform="translate(0 0.62) rotate(-50.45)" fill="#fff"/>
  </g>
</svg>
