<svg id="Group_69114" data-name="Group 69114" xmlns="http://www.w3.org/2000/svg" width="18.998" height="20.307" viewBox="0 0 18.998 20.307">
  <g id="fuel">
    <path id="Path_46435" data-name="Path 46435" d="M3.712,1.333.018,4.565,1.271,6l3.643-3.29Zm0,0" transform="translate(-0.018 0.106)" fill="#2e3036"/>
    <path id="Path_46436" data-name="Path 46436" d="M7.239,8.585h5.275V13.86H7.239Zm0,0" transform="translate(0.553 0.68)" fill="#2e3036"/>
    <path id="Path_46437" data-name="Path 46437" d="M16.114,0H7a1.7,1.7,0,0,0-1.7,1.7V3.96L1.6,7.3V17.425a2.835,2.835,0,0,0,2.778,2.883H16.114a2.835,2.835,0,0,0,2.778-2.883V2.883A2.835,2.835,0,0,0,16.114,0ZM7,1.19h7.147L12.281,3.308h-5.8V1.7A.512.512,0,0,1,7,1.19Zm8.979,15.523-.841.841L13.309,15.73H7.337L5.513,17.554l-.841-.841L6.5,14.888V8.916L4.671,7.092l.841-.841L7.337,8.075H13.31L15.134,6.25l.841.841L14.151,8.916v5.972Zm0,0" transform="translate(0.107)" fill="#fea409"/>
  </g>
</svg>
