<svg id="photo-image-square.2" xmlns="http://www.w3.org/2000/svg" width="35" height="35" viewBox="0 0 35 35">
  <g id="Group_69674" data-name="Group 69674" transform="translate(4.375 4.375)">
    <path id="Path_74895" data-name="Path 74895" d="M3,8.833H3A5.833,5.833,0,0,1,8.833,3H23.417A5.833,5.833,0,0,1,29.25,8.833V23.417h0a5.833,5.833,0,0,1-5.833,5.833H8.833A5.833,5.833,0,0,1,3,23.417H3Z" transform="translate(-3 -3)" fill="none" stroke="#777373" stroke-linecap="round" stroke-linejoin="round" stroke-width="1.5"/>
    <path id="Path_74896" data-name="Path 74896" d="M12,18.37l6.688-6.688h0a2.917,2.917,0,0,1,4.124,0L25.125,14" transform="translate(1.125 0.588)" fill="none" stroke="#777373" stroke-linecap="round" stroke-linejoin="round" stroke-width="1.5"/>
    <circle id="Ellipse_2905" data-name="Ellipse 2905" cx="2" cy="2" r="2" transform="translate(4.625 4.625)" fill="none" stroke="#777373" stroke-linecap="round" stroke-linejoin="round" stroke-width="1.5"/>
    <path id="Path_74897" data-name="Path 74897" d="M3.353,20.851l6.169-6.169h0a2.917,2.917,0,0,1,4.124,0L23,24.041" transform="translate(-2.838 1.963)" fill="none" stroke="#777373" stroke-linecap="round" stroke-linejoin="round" stroke-width="1.5"/>
  </g>
  <path id="Path_74898" data-name="Path 74898" d="M0,0H35V35H0Z" fill="none"/>
</svg>
