<svg xmlns="http://www.w3.org/2000/svg" width="266.839" height="44.526" viewBox="0 0 266.839 44.526">
  <g id="Group_69975" data-name="Group 69975" transform="translate(-4224.161 -187)">
    <g id="Group_69970" data-name="Group 69970" transform="translate(-1574.364 187)">
      <path id="Icon_awesome-star" data-name="Icon awesome-star" d="M4.447.223,3.625,1.89l-1.839.268a.4.4,0,0,0-.223.687l1.33,1.3L2.579,5.973a.4.4,0,0,0,.584.424l1.645-.865L6.454,6.4a.4.4,0,0,0,.584-.424L6.723,4.142l1.33-1.3a.4.4,0,0,0-.223-.687L5.992,1.89,5.17.223a.4.4,0,0,0-.723,0Z" transform="translate(5832.021 0.001)" fill="#fea409"/>
      <path id="Icon_awesome-star-2" data-name="Icon awesome-star" d="M4.447.223,3.625,1.89l-1.839.268a.4.4,0,0,0-.223.687l1.33,1.3L2.579,5.973a.4.4,0,0,0,.584.424l1.645-.865L6.454,6.4a.4.4,0,0,0,.584-.424L6.723,4.142l1.33-1.3a.4.4,0,0,0-.223-.687L5.992,1.89,5.17.223a.4.4,0,0,0-.723,0Z" transform="translate(5823.287 0.001)" fill="#fea409"/>
      <path id="Icon_awesome-star-3" data-name="Icon awesome-star" d="M4.447.223,3.625,1.89l-1.839.268a.4.4,0,0,0-.223.687l1.33,1.3L2.579,5.973a.4.4,0,0,0,.584.424l1.645-.865L6.454,6.4a.4.4,0,0,0,.584-.424L6.723,4.142l1.33-1.3a.4.4,0,0,0-.223-.687L5.992,1.89,5.17.223a.4.4,0,0,0-.723,0Z" transform="translate(5814.552 0.001)" fill="#fea409"/>
      <path id="Icon_awesome-star-4" data-name="Icon awesome-star" d="M4.447.223,3.625,1.89l-1.839.268a.4.4,0,0,0-.223.687l1.33,1.3L2.579,5.973a.4.4,0,0,0,.584.424l1.645-.865L6.454,6.4a.4.4,0,0,0,.584-.424L6.723,4.142l1.33-1.3a.4.4,0,0,0-.223-.687L5.992,1.89,5.17.223a.4.4,0,0,0-.723,0Z" transform="translate(5806.044 0.001)" fill="#fea409"/>
      <path id="Icon_awesome-star-5" data-name="Icon awesome-star" d="M4.447.223,3.625,1.89l-1.839.268a.4.4,0,0,0-.223.687l1.33,1.3L2.579,5.973a.4.4,0,0,0,.584.424l1.645-.865L6.454,6.4a.4.4,0,0,0,.584-.424L6.723,4.142l1.33-1.3a.4.4,0,0,0-.223-.687L5.992,1.89,5.17.223a.4.4,0,0,0-.723,0Z" transform="translate(5797.084 0.001)" fill="#fea409"/>
    </g>
    <rect id="Rectangle_17979" data-name="Rectangle 17979" width="212" height="5" rx="2.5" transform="translate(4279 187.771)" fill="#fea409"/>
    <g id="Group_69971" data-name="Group 69971" transform="translate(-1565.404 197.08)">
      <path id="Icon_awesome-star-6" data-name="Icon awesome-star" d="M4.447.223,3.625,1.89l-1.839.268a.4.4,0,0,0-.223.687l1.33,1.3L2.579,5.973a.4.4,0,0,0,.584.424l1.645-.865L6.454,6.4a.4.4,0,0,0,.584-.424L6.723,4.142l1.33-1.3a.4.4,0,0,0-.223-.687L5.992,1.89,5.17.223a.4.4,0,0,0-.723,0Z" transform="translate(5823.287 0.001)" fill="#fea409"/>
      <path id="Icon_awesome-star-7" data-name="Icon awesome-star" d="M4.447.223,3.625,1.89l-1.839.268a.4.4,0,0,0-.223.687l1.33,1.3L2.579,5.973a.4.4,0,0,0,.584.424l1.645-.865L6.454,6.4a.4.4,0,0,0,.584-.424L6.723,4.142l1.33-1.3a.4.4,0,0,0-.223-.687L5.992,1.89,5.17.223a.4.4,0,0,0-.723,0Z" transform="translate(5814.552 0.001)" fill="#fea409"/>
      <path id="Icon_awesome-star-8" data-name="Icon awesome-star" d="M4.447.223,3.625,1.89l-1.839.268a.4.4,0,0,0-.223.687l1.33,1.3L2.579,5.973a.4.4,0,0,0,.584.424l1.645-.865L6.454,6.4a.4.4,0,0,0,.584-.424L6.723,4.142l1.33-1.3a.4.4,0,0,0-.223-.687L5.992,1.89,5.17.223a.4.4,0,0,0-.723,0Z" transform="translate(5806.059 0.001)" fill="#fea409"/>
      <path id="Icon_awesome-star-9" data-name="Icon awesome-star" d="M4.447.223,3.625,1.89l-1.839.268a.4.4,0,0,0-.223.687l1.33,1.3L2.579,5.973a.4.4,0,0,0,.584.424l1.645-.865L6.454,6.4a.4.4,0,0,0,.584-.424L6.723,4.142l1.33-1.3a.4.4,0,0,0-.223-.687L5.992,1.89,5.17.223a.4.4,0,0,0-.723,0Z" transform="translate(5797.084 0.001)" fill="#fea409"/>
    </g>
    <rect id="Rectangle_17980" data-name="Rectangle 17980" width="39" height="5" rx="2.5" transform="translate(4279 197.771)" fill="#fea409"/>
    <g id="Group_69972" data-name="Group 69972" transform="translate(-1556.444 206.04)">
      <path id="Icon_awesome-star-10" data-name="Icon awesome-star" d="M4.447.223,3.625,1.89l-1.839.268a.4.4,0,0,0-.223.687l1.33,1.3L2.579,5.973a.4.4,0,0,0,.584.424l1.645-.865L6.454,6.4a.4.4,0,0,0,.584-.424L6.723,4.142l1.33-1.3a.4.4,0,0,0-.223-.687L5.992,1.89,5.17.223a.4.4,0,0,0-.723,0Z" transform="translate(5814.552 0.001)" fill="#fea409"/>
      <path id="Icon_awesome-star-11" data-name="Icon awesome-star" d="M4.447.223,3.625,1.89l-1.839.268a.4.4,0,0,0-.223.687l1.33,1.3L2.579,5.973a.4.4,0,0,0,.584.424l1.645-.865L6.454,6.4a.4.4,0,0,0,.584-.424L6.723,4.142l1.33-1.3a.4.4,0,0,0-.223-.687L5.992,1.89,5.17.223a.4.4,0,0,0-.723,0Z" transform="translate(5806.059 0.001)" fill="#fea409"/>
      <path id="Icon_awesome-star-12" data-name="Icon awesome-star" d="M4.447.223,3.625,1.89l-1.839.268a.4.4,0,0,0-.223.687l1.33,1.3L2.579,5.973a.4.4,0,0,0,.584.424l1.645-.865L6.454,6.4a.4.4,0,0,0,.584-.424L6.723,4.142l1.33-1.3a.4.4,0,0,0-.223-.687L5.992,1.89,5.17.223a.4.4,0,0,0-.723,0Z" transform="translate(5797.084 0.001)" fill="#fea409"/>
    </g>
    <rect id="Rectangle_17981" data-name="Rectangle 17981" width="16" height="5" rx="2.5" transform="translate(4279 206.771)" fill="#fea409"/>
    <g id="Group_69973" data-name="Group 69973" transform="translate(-1547.484 216.121)">
      <path id="Icon_awesome-star-13" data-name="Icon awesome-star" d="M4.447.223,3.625,1.89l-1.839.268a.4.4,0,0,0-.223.687l1.33,1.3L2.579,5.973a.4.4,0,0,0,.584.424l1.645-.865L6.454,6.4a.4.4,0,0,0,.584-.424L6.723,4.142l1.33-1.3a.4.4,0,0,0-.223-.687L5.992,1.89,5.17.223a.4.4,0,0,0-.723,0Z" transform="translate(5806.059 0.001)" fill="#fea409"/>
      <path id="Icon_awesome-star-14" data-name="Icon awesome-star" d="M4.447.223,3.625,1.89l-1.839.268a.4.4,0,0,0-.223.687l1.33,1.3L2.579,5.973a.4.4,0,0,0,.584.424l1.645-.865L6.454,6.4a.4.4,0,0,0,.584-.424L6.723,4.142l1.33-1.3a.4.4,0,0,0-.223-.687L5.992,1.89,5.17.223a.4.4,0,0,0-.723,0Z" transform="translate(5797.084 0.001)" fill="#fea409"/>
    </g>
    <rect id="Rectangle_17982" data-name="Rectangle 17982" width="2" height="5" rx="1" transform="translate(4279 216.771)" fill="#fea409"/>
    <g id="Group_69974" data-name="Group 69974" transform="translate(-1538.523 225.081)">
      <path id="Icon_awesome-star-15" data-name="Icon awesome-star" d="M4.447.223,3.625,1.89l-1.839.268a.4.4,0,0,0-.223.687l1.33,1.3L2.579,5.973a.4.4,0,0,0,.584.424l1.645-.865L6.454,6.4a.4.4,0,0,0,.584-.424L6.723,4.142l1.33-1.3a.4.4,0,0,0-.223-.687L5.992,1.89,5.17.223a.4.4,0,0,0-.723,0Z" transform="translate(5797.084 0.001)" fill="#fea409"/>
    </g>
    <rect id="Rectangle_17983" data-name="Rectangle 17983" width="2" height="5" rx="1" transform="translate(4279 225.771)" fill="#fea409"/>
  </g>
</svg>
