<svg xmlns="http://www.w3.org/2000/svg" width="14.621" height="14.658" viewBox="0 0 14.621 14.658">
  <g id="Group_70401" data-name="Group 70401" transform="translate(-9255.652 -282.75)">
    <path id="Path_75397" data-name="Path 75397" d="M12.789,3.116a1.923,1.923,0,0,1-1.167,1.749,2.012,2.012,0,0,1-1.735.087C9.737,4.89,4.758,9.752,4.511,10a.214.214,0,0,0-.07.216A2.243,2.243,0,1,1,2.48,8.432a.343.343,0,0,0,.312-.113Q4.56,6.551,6.328,4.787c.5-.5.993-1,1.494-1.5a.257.257,0,0,0,.072-.321A2,2,0,0,1,8.8.423,2.492,2.492,0,0,1,10.653.052a2.47,2.47,0,0,1,.631.273c.156.087.145.167,0,.261l-1.118.721a.741.741,0,0,0-.319.871,1.86,1.86,0,0,0,.673,1,.7.7,0,0,0,.851.029c.379-.232.756-.464,1.133-.7.137-.085.206-.058.232.109S12.772,2.955,12.789,3.116Z" transform="translate(9255.902 283.001)" fill="none" stroke="#777373" stroke-width="0.5"/>
    <path id="Path_75398" data-name="Path 75398" d="M205.411,206.181a3.516,3.516,0,1,1-3.75-3.513A3.487,3.487,0,0,1,205.411,206.181Zm-3.506,2.833a2.848,2.848,0,1,0-.015-5.7,2.848,2.848,0,1,0,.015,5.7Z" transform="translate(9064.862 87.728)" fill="#777373"/>
    <path id="Path_75399" data-name="Path 75399" d="M308.851,242.8h1.715a.33.33,0,1,1,.013.656c-.54,0-1.081,0-1.623,0-.2,0-.406,0-.609.006-.125,0-.17-.046-.169-.171,0-.738,0-1.478,0-2.215a.318.318,0,0,1,.316-.352.323.323,0,0,1,.35.338c.006.188,0,.377,0,.564C308.85,242.009,308.851,242.39,308.851,242.8Z" transform="translate(8958.243 50.766)" fill="#777373"/>
    <path id="Path_75400" data-name="Path 75400" d="M225.876,317.79a.508.508,0,0,1,.19.025.224.224,0,0,1,.114.155.19.19,0,0,1-.12.145,1.2,1.2,0,0,1-.385,0,.194.194,0,0,1-.127-.14.255.255,0,0,1,.123-.165A.543.543,0,0,1,225.876,317.79Z" transform="translate(9038.48 -24.065)" fill="#777373"/>
    <path id="Path_75401" data-name="Path 75401" d="M314.258,396.016c0,.062.022.137-.005.184a.276.276,0,0,1-.169.137c-.044,0-.128-.083-.141-.142a1.27,1.27,0,0,1-.01-.329c0-.1.052-.18.165-.177s.153.084.162.184c0,.048,0,.1,0,.145Z" transform="translate(8952.662 -99.705)" fill="#777373"/>
  </g>
</svg>
