<svg xmlns="http://www.w3.org/2000/svg" width="28.155" height="28.155" viewBox="0 0 28.155 28.155">
  <g id="Group_69654" data-name="Group 69654" transform="translate(-4286.81 -1536.163)">
    <g id="Heart" transform="translate(4286.81 1536.163)">
      <path id="Path_61439" data-name="Path 61439" d="M0,0H28.155V28.155H0Z" fill="none"/>
      <g id="share" transform="translate(5.446 3.512)">
        <path id="Shape" d="M0,3.5A3.5,3.5,0,1,1,3.5,7,3.5,3.5,0,0,1,0,3.5Z" transform="translate(-0.256 7.488)" fill="#777373"/>
        <path id="Shape-2" data-name="Shape" d="M0,3.5A3.5,3.5,0,1,1,3.5,7,3.5,3.5,0,0,1,0,3.5Z" transform="translate(10.744 0.488)" fill="#777373"/>
        <path id="Shape-3" data-name="Shape" d="M0,3.5A3.5,3.5,0,1,1,3.5,7,3.5,3.5,0,0,1,0,3.5Z" transform="translate(10.744 14.488)" fill="#777373"/>
        <path id="Rectangle" d="M0,0,7.811.034l.007,1.556L.007,1.556Z" transform="translate(5.801 8.597) rotate(-32.894)" fill="#777373"/>
        <path id="Rectangle-2" data-name="Rectangle" d="M0,0,1.555.007l.033,7.6L.033,7.6Z" transform="matrix(0.544, -0.839, 0.839, 0.544, 5.799, 12.716)" fill="#777373"/>
      </g>
    </g>
  </g>
</svg>
