<svg id="Layer_2" data-name="Layer 2" xmlns="http://www.w3.org/2000/svg" width="22.106" height="11.914" viewBox="0 0 22.106 11.914">
  <g id="Layer_1" data-name="Layer 1" transform="translate(0 0)">
    <path id="Path_75221" data-name="Path 75221" d="M3.358,10.6v1.045H-.031A10.71,10.71,0,0,1,4.5,2.247a10.487,10.487,0,0,1,11.934-.7c3.871,2.164,5.645,5.656,5.639,10.1H18.68V10.616h2.3a9.982,9.982,0,0,0-2.528-6.13L16.84,6.128l-.776-.811,1.648-1.572a10.078,10.078,0,0,0-6.144-2.58V3.458H10.486V1.167A10.043,10.043,0,0,0,4.351,3.712L5.983,5.3l-.8.734-1.554-1.6A10.052,10.052,0,0,0,1.05,10.6Z" transform="translate(0.033 -0.01)" fill="#fea409"/>
    <path id="Path_75222" data-name="Path 75222" d="M188.259,113.219c-.2.254-.379.517-.588.759-1.01,1.169-2.03,2.329-3.037,3.5a.693.693,0,0,0-.156.377,1.124,1.124,0,0,1-1.124,1.042,1.1,1.1,0,0,1-1.07-1.058,1.047,1.047,0,0,1,1.009-1.128.9.9,0,0,0,.575-.238q1.965-1.537,3.938-3.06c.124-.1.265-.17.4-.254Z" transform="translate(-172.331 -106.983)" fill="#fea409"/>
  </g>
</svg>
