<svg id="R.Icon" xmlns="http://www.w3.org/2000/svg" width="24" height="24" viewBox="0 0 24 24">
  <g id="Icon">
    <g id="ic_radio_active">
      <rect id="bound" width="24" height="24" opacity="0"/>
      <path id="Fill" d="M10,0A10,10,0,1,0,20,10,10,10,0,0,0,10,0Z" transform="translate(2 2)" fill="#0ead69"/>
      <path id="Path" d="M11.715,1.542,5.26,8h0a.9.9,0,0,1-1.1.139A.914.914,0,0,1,3.982,8h0L.264,4.281A.9.9,0,1,1,1.542,3L4.62,6.082,10.438.265a.9.9,0,1,1,1.278,1.278Z" transform="translate(5.992 7.85)" fill="#fff"/>
    </g>
  </g>
</svg>
