<svg xmlns="http://www.w3.org/2000/svg" width="45.658" height="45.663" viewBox="0 0 45.658 45.663">
  <g id="Layer_2" data-name="Layer 2" transform="translate(0.021 -0.003)">
    <g id="Layer_1" data-name="Layer 1" transform="translate(-0.021 0.003)">
      <path id="Path_75476" data-name="Path 75476" d="M37.95,28.365l4.337-2.625a22.533,22.533,0,0,1-3.531,28.021A22.706,22.706,0,0,1,7.316,54.2a22.586,22.586,0,0,1-4-28.452l4.341,2.6A3.065,3.065,0,0,1,6.7,30.564a5.014,5.014,0,0,0-.595.616,1.806,1.806,0,0,0,.7,2.862,8.888,8.888,0,0,0,1,.358.983.983,0,0,1,.741,1.009v4.065A1,1,0,0,1,7.7,40.552c-1.871.431-2.311,1.427-1.5,3.35A18.119,18.119,0,0,0,16.326,54.045c1.323.543,2.065.172,2.5-1.181.336-1.026.491-1.138,1.582-1.138h4.992a1.216,1.216,0,0,1,1.341.992c.47,1.561,1.181,1.914,2.664,1.293A17.976,17.976,0,0,0,39.648,43.16a1.7,1.7,0,0,0-1.194-2.449c-1.392-.513-1.392-.513-1.392-2.022V35.621a1.155,1.155,0,0,1,1-1.319,3.1,3.1,0,0,0,.341-.1,1.9,1.9,0,0,0,.776-3.38A3.12,3.12,0,0,1,37.95,28.365Z" transform="translate(0.021 -14.645)" fill="#3b3b3b"/>
      <path id="Path_75477" data-name="Path 75477" d="M13.628,12.43,9.821,10.115c-.121-.073-.237-.151-.461-.3C13.787,3.791,19.637.342,27.086.028c8.3-.353,14.851,3.108,19.869,9.8l-4.311,2.587C38.98,7.636,34.208,4.985,28.134,4.989S17.331,7.628,13.628,12.43Z" transform="translate(-5.316 -0.003)" fill="#3b3b3b"/>
      <path id="Path_75478" data-name="Path 75478" d="M46.395,41.32a4.992,4.992,0,1,1-5,4.958,4.992,4.992,0,0,1,5-4.958Zm0,2.155a2.873,2.873,0,1,0,0-.022Z" transform="translate(-23.538 -23.509)" fill="#3b3b3b"/>
      <path id="Path_75479" data-name="Path 75479" d="M23.16,49.547V44.374a.629.629,0,0,1,.392-.431c2.556-.578,5.1-1.108,7.643-1.642h0a30.047,30.047,0,0,0-1.448,3.19,5.637,5.637,0,0,0,.267,3.7Z" transform="translate(-13.167 -24.066)" fill="#3b3b3b"/>
      <path id="Path_75480" data-name="Path 75480" d="M71.89,43.935v5.5l-6.79-.315A6.894,6.894,0,0,0,63.76,42.18Z" transform="translate(-36.264 -23.998)" fill="#3b3b3b"/>
      <path id="Path_75481" data-name="Path 75481" d="M46.37,73.322V66.33a6.626,6.626,0,0,0,5.634,0v6.992Z" transform="translate(-26.371 -37.737)" fill="#3b3b3b"/>
      <path id="Path_75482" data-name="Path 75482" d="M52.476,50.982a1.423,1.423,0,1,1-1.418-1.392,1.423,1.423,0,0,1,1.418,1.392Z" transform="translate(-28.226 -28.213)" fill="#3b3b3b"/>
    </g>
  </g>
</svg>