<svg id="_01_Icons_Filled_alert-circle-fill_Copy_3" data-name="01) Icons/Filled/alert-circle-fill Copy 3" xmlns="http://www.w3.org/2000/svg" xmlns:xlink="http://www.w3.org/1999/xlink" width="24" height="24" viewBox="0 0 24 24">
  <defs>
    <clipPath id="clip-path">
      <path id="_Icon_小olor" data-name=" Icon 小olor" d="M1,14a1,1,0,0,1-.768-1.64L4.707,6.989.392,1.627A1,1,0,0,1,1.951.373l4.828,6A1,1,0,0,1,6.768,7.64l-5,6A1,1,0,0,1,1,14" transform="translate(9 5)" fill="#fff"/>
    </clipPath>
  </defs>
  <rect id="_01_Icons_Line_arrow-ios-right_background" data-name="01) Icons/Line/arrow-ios-right background" width="24" height="24" fill="none"/>
  <g id="Group_5" data-name="Group 5">
    <path id="_Icon_小olor-2" data-name=" Icon 小olor" d="M1,14a1,1,0,0,1-.768-1.64L4.707,6.989.392,1.627A1,1,0,0,1,1.951.373l4.828,6A1,1,0,0,1,6.768,7.64l-5,6A1,1,0,0,1,1,14" transform="translate(9 5)" fill="#fff"/>
  </g>
</svg>
