<svg id="Money_Percent" data-name="Money, Percent" xmlns="http://www.w3.org/2000/svg" width="20" height="20" viewBox="0 0 20 20">
  <g id="Group_69911" data-name="Group 69911" transform="translate(1.667 1.666)">
    <path id="Path_74943" data-name="Path 74943" d="M4,10.555V7.076A2.5,2.5,0,0,1,5.617,4.737l6.961-2.628a1.667,1.667,0,0,1,2.256,1.56V6.46" transform="translate(-2.333 -2)" fill="none" stroke="#FEA409" stroke-linecap="round" stroke-linejoin="round" stroke-width="1.5"/>
    <path id="Path_74944" data-name="Path 74944" d="M9.543,18.725h6.123a2.507,2.507,0,0,0,2.5-2.5V9.851a2.5,2.5,0,0,0-2.5-2.5h-10A1.666,1.666,0,0,0,4,9.018" transform="translate(-2.333 -2.892)" fill="none" stroke="#FEA409" stroke-linecap="round" stroke-linejoin="round" stroke-width="1.5"/>
    <path id="Path_74945" data-name="Path 74945" d="M17.208,14.1a.208.208,0,1,0,.209.208.209.209,0,0,0-.209-.208" transform="translate(-4.5 -4.017)" fill="none" stroke="#FEA409" stroke-linecap="round" stroke-linejoin="round" stroke-width="1.5"/>
    <path id="Path_74946" data-name="Path 74946" d="M5.849,17.6,8.6,14.85" transform="translate(-2.641 -4.141)" fill="none" stroke="#fff" stroke-linecap="round" stroke-linejoin="round" stroke-width="1.5"/>
    <path id="Path_74947" data-name="Path 74947" d="M9.245,18.025a.157.157,0,1,1-.222,0,.156.156,0,0,1,.222,0" transform="translate(-3.163 -4.663)" fill="none" stroke="#FEA409" stroke-linecap="round" stroke-linejoin="round" stroke-width="1.5"/>
    <path id="Path_74948" data-name="Path 74948" d="M5.913,14.69a.157.157,0,1,1-.222,0,.156.156,0,0,1,.222,0" transform="translate(-2.608 -4.107)" fill="none" stroke="#FEA409" stroke-linecap="round" stroke-linejoin="round" stroke-width="1.5"/>
    <path id="Path_74949" data-name="Path 74949" d="M6.583,20.167A4.583,4.583,0,1,0,2,15.583a4.61,4.61,0,0,0,4.583,4.583Z" transform="translate(-2 -3.5)" fill="none" stroke="#FEA409" stroke-linecap="round" stroke-linejoin="round" stroke-width="1.5"/>
  </g>
  <path id="Path_74950" data-name="Path 74950" d="M0,0H20V20H0Z" fill="none"/>
</svg>
