<svg xmlns="http://www.w3.org/2000/svg" width="34" height="34" viewBox="0 0 34 34">
  <g id="Group_69910" data-name="Group 69910" transform="translate(-331.389 -49.389)">
    <g id="_01_Icons_Line_arrow-ios-up" data-name="01) Icons/Line/arrow-ios-up" transform="translate(331 49)">
      <rect id="_01_Icons_Line_edit-2_background" data-name="01) Icons/Line/edit-2 background" width="34" height="34" transform="translate(0.389 0.389)" fill="none"/>
      <path id="_Icon_Сolor" data-name="🎨 Icon Сolor" d="M21.736,28.948H1.449a1.449,1.449,0,0,1,0-2.9H21.736a1.449,1.449,0,0,1,0,2.9Zm-20.287-5.8A1.448,1.448,0,0,1,.005,21.573l.55-6.042a2.858,2.858,0,0,1,.826-1.759L14.416.735A2.6,2.6,0,0,1,16.285,0a2.939,2.939,0,0,1,2.067.836L22.319,4.8a2.79,2.79,0,0,1,.1,3.935L9.382,21.774a2.865,2.865,0,0,1-1.758.826l-6.043.549C1.538,23.151,1.495,23.152,1.449,23.152ZM11.569,7.681h0L3.43,15.82,3.048,20.1l4.313-.393,8.116-8.122L11.569,7.681Zm4.764-4.765h0L13.511,5.741l3.9,3.9L20.238,6.82l-3.9-3.9Z" transform="translate(5.796 2.898)" fill="#fea409"/>
    </g>
  </g>
</svg>
