<svg xmlns="http://www.w3.org/2000/svg" xmlns:xlink="http://www.w3.org/1999/xlink" width="34" height="34" viewBox="0 0 34 34">
  <defs>
    <clipPath id="clip-path">
      <path id="_Icon_小olor" data-name=" Icon 小olor" d="M1,16a1,1,0,0,1-1-1V1A1,1,0,0,1,1,0H3A1,1,0,1,1,3,2H2V14H3a1,1,0,1,1,0,2Zm11.4-3.2a1,1,0,0,1-.2-1.4L14,9H6A1,1,0,1,1,6,7h8a.7.7,0,0,1,.086.018L12.368,4.575A1,1,0,0,1,14,3.424l2.814,4A1,1,0,0,1,16.8,8.6l-3,4a1,1,0,0,1-1.4.2Z" transform="translate(4 4)" fill="#fa3e3e"/>
    </clipPath>
  </defs>
  <g id="Oval_Copy" data-name="Oval Copy" fill="#fa3e3e" stroke="#fa3e3e" stroke-miterlimit="10" stroke-width="1" opacity="0.15">
    <circle cx="17" cy="17" r="17" stroke="none"/>
    <circle cx="17" cy="17" r="16.5" fill="none"/>
  </g>
  <g id="_01_Icons_Filled_alert-circle-fill_Copy_4" data-name="01) Icons/Filled/alert-circle-fill Copy 4" transform="translate(5 5)">
    <rect id="_01_Icons_Line_log-out_background" data-name="01) Icons/Line/log-out background" width="24" height="24" fill="none"/>
    <g id="Group_110" data-name="Group 110">
      <path id="_Icon_小olor-2" data-name=" Icon 小olor" d="M1,16a1,1,0,0,1-1-1V1A1,1,0,0,1,1,0H3A1,1,0,1,1,3,2H2V14H3a1,1,0,1,1,0,2Zm11.4-3.2a1,1,0,0,1-.2-1.4L14,9H6A1,1,0,1,1,6,7h8a.7.7,0,0,1,.086.018L12.368,4.575A1,1,0,0,1,14,3.424l2.814,4A1,1,0,0,1,16.8,8.6l-3,4a1,1,0,0,1-1.4.2Z" transform="translate(4 4)" fill="#fa3e3e"/>
    </g>
  </g>
</svg>
