<svg xmlns="http://www.w3.org/2000/svg" width="34" height="34" viewBox="0 0 34 34">
  <circle id="Oval_Copy_2" data-name="Oval Copy 2" cx="17" cy="17" r="17" fill="#fea409" opacity="0.21"/>
  <path id="Communication_head_set_phones_customer_service_support" d="M12.6,2A8.622,8.622,0,0,0,4,10.6v2.149a3.547,3.547,0,0,0,3.582,3.582.677.677,0,0,0,.716-.716V9.881a.677.677,0,0,0-.716-.716A3.467,3.467,0,0,0,5.5,9.881a7.125,7.125,0,0,1,14.185,0,3.467,3.467,0,0,0-2.078-.716.677.677,0,0,0-.716.716v5.731a.677.677,0,0,0,.716.716,2.623,2.623,0,0,0,1.29-.287,7.31,7.31,0,0,1-3.51,3.224A1.846,1.846,0,0,0,13.6,17.69a1.743,1.743,0,0,0-1.719,1.719A1.82,1.82,0,0,0,13.672,21.2h.287a8.561,8.561,0,0,0,7.236-8.454V10.6A8.622,8.622,0,0,0,12.6,2Z" transform="translate(4.403 5.8)" fill="#fea409"/>
</svg>
