<svg xmlns="http://www.w3.org/2000/svg" width="45.519" height="30.405" viewBox="0 0 45.519 30.405">
  <g id="toyota" transform="translate(0 -85)">
    <path id="Path_74941" data-name="Path 74941" d="M22.76,85C10.189,85,0,91.806,0,100.2s10.189,15.2,22.76,15.2,22.76-6.806,22.76-15.2S35.329,85,22.76,85Zm11.424,5.953a1.223,1.223,0,0,1,0,1.978,14.542,14.542,0,0,1-4.767,2.055c-.043-.156-.088-.31-.136-.462-1.007-3.269-2.871-5.68-5.1-6.409C29.2,88.354,32.661,89.826,34.183,90.953ZM18.847,98.892a35.07,35.07,0,0,0,7.824,0q.041.589.042,1.213c0,5.331-2.38,8.868-3.954,8.868S18.8,105.436,18.8,100.1Q18.8,99.482,18.847,98.892ZM26.088,95.6a28.576,28.576,0,0,1-3.328.19q-.585,0-1.145-.022h-.009c-.761-.028-1.486-.086-2.175-.167.813-2.727,2.258-4.366,3.329-4.366S25.275,92.874,26.088,95.6Zm-14.749-4.66a16.68,16.68,0,0,1,6.8-2.488l.171-.028a27.183,27.183,0,0,1,3.028-.31c-2.331.763-4.264,3.368-5.233,6.871a14.443,14.443,0,0,1-4.772-2.065A1.223,1.223,0,0,1,11.339,90.942Zm12.8,21.546c-.077,0-.154.007-.231.01h0q-.569.023-1.145.023c-10.51,0-19.388-5.641-19.388-12.318a9.545,9.545,0,0,1,3.552-7c.792,2.213,4.107,4.119,8.587,5.133q-.077.868-.077,1.772c0,6.749,3.28,12.22,7.326,12.22s7.325-5.471,7.325-12.22q0-.9-.077-1.772c4.48-1.014,7.8-2.921,8.587-5.133a9.548,9.548,0,0,1,3.552,7C42.147,106.586,34.033,112.021,24.138,112.488Zm5.139-17.964c.041.156.086.31.136.462C29.369,94.83,29.325,94.676,29.277,94.524Z" fill="#fff"/>
    <g id="Group_70047" data-name="Group 70047" transform="translate(9.103 85)">
      <path id="Path_74942" data-name="Path 74942" d="M104.622,128.021a14.445,14.445,0,0,0,4.772,2.065c-3.88-.156-5.956-1.285-6.612-1.911a1.4,1.4,0,0,1,.244-2.133c1.524-1.119,3.335-1.8,8.573-2.517l-.171.028a16.682,16.682,0,0,0-6.8,2.488A1.223,1.223,0,0,0,104.622,128.021Z" transform="translate(-102.391 -120.101)" fill="#fff"/>
      <path id="Path_74943" data-name="Path 74943" d="M244.267,85q-.576,0-1.145.019c12.038.4,21.615,7.044,21.615,15.184s-9.577,14.785-21.615,15.184q.569.019,1.145.019c12.57,0,22.76-6.806,22.76-15.2S256.836,85,244.267,85Z" transform="translate(-230.61 -85)" fill="#fff"/>
      <path id="Path_74944" data-name="Path 74944" d="M251.516,234.965q.077.868.077,1.772c0,6.749-3.28,12.22-7.325,12.22a4.5,4.5,0,0,1-1.145-.149c3.5-.917,6.1-4.141,6.1-10.24,0-.006.082-1.843.082-1.849C249.3,235.71,250.52,235.136,251.516,234.965Z" transform="translate(-230.611 -221.632)" fill="#fff"/>
      <path id="Path_74945" data-name="Path 74945" d="M248.1,125.329a1.443,1.443,0,0,1-.222.063,2.231,2.231,0,0,1-2.506-1.35,9.63,9.63,0,0,0-5.345-5.584,6.725,6.725,0,0,1,2.839,0c2.227.729,4.091,3.14,5.1,6.409C248.01,125.023,248.055,125.177,248.1,125.329Z" transform="translate(-227.795 -115.343)" fill="#fff"/>
    </g>
  </g>
</svg>
