<svg id="home-house-line" xmlns="http://www.w3.org/2000/svg" width="143.4" height="143.4" viewBox="0 0 143.4 143.4">
  <path id="Path_58700" data-name="Path 58700" d="M0,0H143.4V143.4H0Z" fill="none"/>
  <g id="Group_69961" data-name="Group 69961" transform="translate(17.925 11.95)">
    <path id="Path_74941" data-name="Path 74941" d="M26.95,16.125v11.2H15" transform="translate(56.7 68.272)" fill="none" stroke="#fea409" stroke-linecap="round" stroke-linejoin="round" stroke-width="5"/>
    <path id="Path_74942" data-name="Path 74942" d="M6,9.5H53.8" transform="translate(11.925 35.313)" fill="none" stroke="#fea409" stroke-linecap="round" stroke-linejoin="round" stroke-width="5"/>
    <path id="Path_74943" data-name="Path 74943" d="M6,6.18H53.8" transform="translate(11.925 18.796)" fill="none" stroke="#fea409" stroke-linecap="round" stroke-linejoin="round" stroke-width="5"/>
    <path id="Path_74944" data-name="Path 74944" d="M6.05,13h23.6" transform="translate(12.174 52.725)" fill="none" stroke="#fea409" stroke-linecap="round" stroke-linejoin="round" stroke-width="5"/>
    <path id="Path_74945" data-name="Path 74945" d="M38.888,66.9A26.888,26.888,0,1,0,12,40.013,26.89,26.89,0,0,0,38.888,66.9" transform="translate(41.775 53.347)" fill="none" stroke="#fea409" stroke-linecap="round" stroke-linejoin="round" stroke-width="5"/>
    <path id="Path_74946" data-name="Path 74946" d="M56.871,97.6H14.95A11.947,11.947,0,0,1,3,85.65V13.95A11.947,11.947,0,0,1,14.95,2H74.7A11.947,11.947,0,0,1,86.65,13.95V68.633" transform="translate(-3 -2)" fill="none" stroke="#fea409" stroke-linecap="round" stroke-linejoin="round" stroke-width="5"/>
  </g>
</svg>
