<svg xmlns="http://www.w3.org/2000/svg" width="12.911" height="12.759" viewBox="0 0 12.911 12.759">
  <g id="Group" transform="translate(0 -0.113)">
    <path id="Fill_1" data-name="Fill 1" d="M8.595,7.086a1.853,1.853,0,0,0,.443-1.238,1.558,1.558,0,0,0-.459-1.122,1.468,1.468,0,0,0-1.089-.473H5.254c.021-.078.043-.144.064-.2a1.4,1.4,0,0,1,.089-.183c.037-.066.064-.116.08-.149q.146-.282.222-.465a3.441,3.441,0,0,0,.153-.5,2.657,2.657,0,0,0,.077-.631q0-.2,0-.324a3.575,3.575,0,0,0-.04-.374,2.136,2.136,0,0,0-.1-.415A1.947,1.947,0,0,0,5.6.64,1.141,1.141,0,0,0,5.282.3,1.736,1.736,0,0,0,4.8.087,2.338,2.338,0,0,0,4.132,0a.489.489,0,0,0-.363.158,1.441,1.441,0,0,0-.275.415,2.539,2.539,0,0,0-.157.432q-.044.183-.1.507-.073.349-.109.5a2.709,2.709,0,0,1-.141.4,1.272,1.272,0,0,1-.25.4,12.286,12.286,0,0,0-.815,1q-.4.532-.815,1.005t-.613.49a.524.524,0,0,0-.347.17A.51.51,0,0,0,0,5.84v5.325a.505.505,0,0,0,.153.369.527.527,0,0,0,.363.162,5.793,5.793,0,0,1,1.275.366q.622.216.973.328a10.029,10.029,0,0,0,.98.241,5.836,5.836,0,0,0,1.162.128H5.947a1.976,1.976,0,0,0,1.59-.648,2.04,2.04,0,0,0,.4-1.5,1.627,1.627,0,0,0,.435-.781,1.756,1.756,0,0,0,0-.972,1.76,1.76,0,0,0,.347-1.138A2.042,2.042,0,0,0,8.595,7.086Z" transform="translate(3.873 0.113)" fill="#fea409"/>
    <path id="Fill_3" data-name="Fill 3" d="M2.84,6.38H.517a.5.5,0,0,1-.364-.158A.526.526,0,0,1,0,5.848V.532A.523.523,0,0,1,.153.158.5.5,0,0,1,.517,0H2.84A.5.5,0,0,1,3.2.158a.523.523,0,0,1,.153.374V5.848a.526.526,0,0,1-.153.374A.5.5,0,0,1,2.84,6.38ZM1.55,4.253a.489.489,0,0,0-.368.157.53.53,0,0,0-.149.374.522.522,0,0,0,.149.377.511.511,0,0,0,.731,0,.512.512,0,0,0,.154-.377.521.521,0,0,0-.154-.374A.492.492,0,0,0,1.55,4.253Z" transform="translate(0 5.429)" fill="#fea409"/>
  </g>
</svg>
