<svg id="sale-discount-promotion-label" xmlns="http://www.w3.org/2000/svg" width="143.4" height="143.4" viewBox="0 0 143.4 143.4">
  <g id="Group_70080" data-name="Group 70080" transform="translate(17.927 17.925)">
    <path id="Path_74988" data-name="Path 74988" d="M17.849,7.64a1.5,1.5,0,1,1-2.115,0,1.493,1.493,0,0,1,2.115,0" transform="translate(58.164 17.921)" fill="none" stroke="#fea409" stroke-linecap="round" stroke-linejoin="round" stroke-width="5"/>
    <path id="Path_74989" data-name="Path 74989" d="M65.808,3h26.2a12.56,12.56,0,0,1,12.565,12.559v26.2a12.579,12.579,0,0,1-3.681,8.885l-50.25,50.25a12.561,12.561,0,0,1-17.764,0l-26.2-26.2a12.56,12.56,0,0,1,0-17.764l50.25-50.25A12.565,12.565,0,0,1,65.808,3Z" transform="translate(-3 -3)" fill="none" stroke="#fea409" stroke-linecap="round" stroke-linejoin="round" stroke-width="5"/>
    <path id="Path_74990" data-name="Path 74990" d="M14,50.85H37.9A11.947,11.947,0,0,0,49.85,38.9V15" transform="translate(51.723 56.7)" fill="none" stroke="#fea409" stroke-linecap="round" stroke-linejoin="round" stroke-width="5"/>
  </g>
  <path id="Path_74991" data-name="Path 74991" d="M0,0H143.4V143.4H0Z" fill="none"/>
</svg>
