<svg xmlns="http://www.w3.org/2000/svg" width="15.024" height="15.024" viewBox="0 0 15.024 15.024">
  <path id="discount-circle" d="M8.012.5a7.512,7.512,0,1,0,0,15.024A7.6,7.6,0,0,0,11.775,14.5a7.851,7.851,0,0,0,3.116-3.459,7.134,7.134,0,0,0,.634-3.024,8,8,0,0,0-.414-2.459,6.986,6.986,0,0,0-1.165-2.207A7.468,7.468,0,0,0,8.012.5Zm1.2,9.908a1.2,1.2,0,1,1,1.2,1.2A1.2,1.2,0,0,1,9.21,10.408ZM11.67,5.28,5.28,11.67a.655.655,0,1,1-.926-.926l6.39-6.39a.655.655,0,0,1,.926.926Zm-4.853.336a1.2,1.2,0,1,1-1.2-1.2,1.2,1.2,0,0,1,1.2,1.2Z" transform="translate(-0.5 -0.5)" fill="#fea409"/>
</svg>
