<svg width="89" height="90" viewBox="0 0 89 90" fill="none" xmlns="http://www.w3.org/2000/svg">
<path d="M44.2885 40.0286C41.6154 40.0286 39.4551 42.2135 39.4551 44.917C39.4551 47.6204 41.6154 49.8053 44.2885 49.8053C46.9616 49.8053 49.1221 47.6204 49.1221 44.917C49.1221 42.2135 46.9249 40.0286 44.2885 40.0286Z" fill="#5586ff"/>
<path d="M28.7993 40.0286C26.1262 40.0286 23.9657 42.2135 23.9657 44.917C23.9657 47.6204 26.1262 49.8053 28.7993 49.8053C31.4724 49.8053 33.6329 47.6204 33.6329 44.917C33.6329 42.2135 31.4724 40.0286 28.7993 40.0286Z" fill="#5586ff"/>
<path d="M59.7411 49.8053C62.4106 49.8053 64.5747 47.6167 64.5747 44.917C64.5747 42.2172 62.4106 40.0286 59.7411 40.0286C57.0717 40.0286 54.9076 42.2172 54.9076 44.917C54.9076 47.6167 57.0717 49.8053 59.7411 49.8053Z" fill="#5586ff"/>
<path d="M75.7795 13.2165C56.775 -5.33708 33.0469 -1.89299 17.9971 9.77247C3.16702 21.2528 -6.31686 42.8801 5.80355 65.5074L0.457354 85.172C0.164413 86.246 0.384155 87.394 1.04327 88.3199C1.70239 89.2087 2.76426 89.7271 3.93602 89.7271C3.97264 89.7271 3.97253 89.7271 4.00915 89.7271C4.41194 89.7271 4.63165 89.6531 8.76943 88.5791C11.6988 87.8014 16.569 86.5052 24.8811 84.3203C32.461 88.1347 38.3564 88.5791 42.6773 88.8754C43.3364 88.9124 43.9589 88.9865 44.6546 89.0235C62.3409 89.0235 77.6837 78.6912 84.641 62.0633C91.7448 45.0281 88.376 26.3263 75.7795 13.2165ZM13.0171 65.9888C13.2734 65.063 13.127 64.0631 12.6876 63.2484C1.84878 44.3244 9.39203 25.8449 21.6955 15.957C23.8193 14.2535 26.1261 12.7721 28.5429 11.513C31.0329 10.2539 33.6328 9.254 36.3425 8.55037C39.0889 7.84674 41.9084 7.43937 44.7646 7.40234C47.694 7.3653 50.6233 7.66157 53.4795 8.3652C56.5187 9.10586 59.4482 10.2909 62.1946 11.8093C70.2138 16.2903 76.1092 23.6969 79.3682 32.3257C81.0159 36.7696 81.8215 41.3988 81.5652 46.1761C81.4187 48.9165 80.9793 51.62 80.2469 54.2493C79.8075 55.8047 79.295 57.3231 78.6725 58.8414C72.6306 73.6177 58.7891 82.6167 43.3365 81.765C35.2807 81.3206 30.9963 79.2838 28.3965 78.0617C27.0416 77.4321 26.0529 76.9507 25.1009 76.9507C24.8812 76.9507 24.6249 76.9877 24.4052 77.0247L8.91604 81.0984L13.0171 65.9888Z" fill="#5586ff"/>
</svg>
