<svg xmlns="http://www.w3.org/2000/svg" width="216.212" height="31.548" viewBox="0 0 216.212 31.548">
  <g id="Component_33_1" data-name="Component 33 – 1" transform="translate(0 0.5)">
    <g id="Group_70211" data-name="Group 70211" transform="translate(-99.743 -76)">
      <path id="Path_74999" data-name="Path 74999" d="M-76.934-20.892a7.721,7.721,0,0,0-6.438,2.852V-29.274h-5.185V.842h5.185V-7.67c0-6.136,1.426-8.685,4.839-8.685,2.679,0,3.932,1.512,3.932,4.753V.842h5.185V-12.9C-69.416-18-72.138-20.892-76.934-20.892Zm31.24,10.8c0-5.92-3.2-10.8-9.808-10.8-7.086,0-10.111,5.617-10.111,11.191,0,5.7,3.111,10.975,10.456,10.975a11.076,11.076,0,0,0,8.728-3.846l-3.586-3.154a6.387,6.387,0,0,1-5.1,2.29c-3.37,0-5.1-1.858-5.315-4.667h14.6A15.862,15.862,0,0,0-45.694-10.089Zm-14.777-2.117a4.784,4.784,0,0,1,4.926-4.364c2.722,0,4.8,1.642,4.883,4.364Zm30.721-8.685a7.721,7.721,0,0,0-6.438,2.852V-29.274h-5.185V.842h5.185V-7.67c0-6.136,1.426-8.685,4.839-8.685,2.679,0,3.932,1.512,3.932,4.753V.842h5.185V-12.9C-22.232-18-24.954-20.892-29.75-20.892Zm24.715,0A7.666,7.666,0,0,0-11.473-18v-2.463h-5.185V.842h5.185V-7.67c0-3.8,0-8.685,4.839-8.685C-2.7-16.355-2.7-13.071-2.7-11.6V.842H2.483V-12.9C2.483-17.953-.239-20.892-5.035-20.892ZM14.754,1.274c4.018,0,8.3-2.16,8.3-7.129,0-7.778-11.148-5.876-11.148-9.117,0-.994,1.037-1.815,2.722-1.815a4.585,4.585,0,0,1,4.234,2.722l4.018-2.2a8.812,8.812,0,0,0-8.08-4.623c-4.1,0-7.821,2.117-7.821,6.222,0,7.907,10.975,5.531,10.975,9.117,0,1.123-1.037,2.506-3.457,2.506-2.852,0-3.975-1.944-4.537-3.5L5.81-4.688A9.175,9.175,0,0,0,14.754,1.274ZM39.081-20.892a7.721,7.721,0,0,0-6.438,2.852V-29.274H27.457V.842h5.185V-7.67c0-6.136,1.426-8.685,4.839-8.685,2.679,0,3.932,1.512,3.932,4.753V.842H46.6V-12.9C46.6-18,43.877-20.892,39.081-20.892Zm21.345,0a11.884,11.884,0,0,0-9.592,4.58l3.759,3.154a7.22,7.22,0,0,1,5.747-3.2c2.463,0,4.018,1.426,4.018,3.759v.6H59.043a13.639,13.639,0,0,0-5.66.951,5.512,5.512,0,0,0-3.2,5.358c0,4.062,3.2,6.957,7.691,6.957a7.492,7.492,0,0,0,6.481-3.2L64.789.842h4.753V-12.6C69.542-17.737,66.043-20.892,60.425-20.892ZM58.7-3.133c-2.074,0-3.327-.951-3.327-2.463a2.042,2.042,0,0,1,.864-1.772,5.76,5.76,0,0,1,3.5-.735h4.623C64.357-5.337,61.808-3.133,58.7-3.133ZM86.653-20.892a7.721,7.721,0,0,0-6.438,2.852V-29.274H75.03V.842h5.185V-7.67c0-6.136,1.426-8.685,4.839-8.685,2.679,0,3.932,1.512,3.932,4.753V.842h5.185V-12.9C94.171-18,91.449-20.892,86.653-20.892Z" transform="translate(221.283 105.274)" fill="#231f20" stroke="rgba(0,0,0,0)" stroke-width="1"/>
      <g id="Group_70208" data-name="Group 70208" transform="translate(99.743 76)">
        <path id="Path_74997" data-name="Path 74997" d="M483.365,312.527h0a2.681,2.681,0,0,0,1.016,2.736l9.115,6.69a9.261,9.261,0,0,1-10.523,5.4c-.109-.024-.216-.052-.323-.08a9.193,9.193,0,0,1-4.79-3.047,2.636,2.636,0,0,0-1.462-.885h0a2.683,2.683,0,0,0-2.668,4.313,14.616,14.616,0,0,0,25.51-6.13l.38-1.7-12.04-8.866A2.68,2.68,0,0,0,483.365,312.527Z" transform="translate(-471.911 -302.391)" fill="#231f20"/>
        <path id="Path_74998" data-name="Path 74998" d="M476.328,247.642l-9.137-6.832a9.254,9.254,0,0,1,15.622-2.291,2.73,2.73,0,0,0,1.512.91h0a2.67,2.67,0,0,0,2.655-4.292,14.615,14.615,0,0,0-25.534,6.1l-.38,1.7,12.061,9.007a2.681,2.681,0,0,0,4.216-1.565h0A2.681,2.681,0,0,0,476.328,247.642Z" transform="translate(-461.067 -229.824)" fill="#fea409"/>
      </g>
    </g>
  </g>
</svg>
